M48
;Layer_Color=9474304
;FILE_FORMAT=4:4
METRIC,LZ
;TYPE=PLATED
T01F00S00C0.3048
T03F00S00C1.0200
T04F00S00C1.0668
T05F00S00C1.0700
T06F00S00C1.1900
%
T01
X00297688Y00075946
X0032512Y00064008
X00345186Y00065278
X00351536Y00077978
X0034493Y0008845
X00429006Y0008763
X0048006Y0005207
X00138684Y00323342
X0013911Y00332404
X0013589Y0035552
X00126746Y0037084
X0011049Y0035814
X0011811Y00347472
X0008382Y0032385
X0009779Y0042291
X00096318Y00430022
X00125222Y00424942
X00143905Y00434086
X0020447Y0040513
X0033401Y0037211
X00330454Y00344424
X00291084Y00315976
X002312Y0025019
X00231155Y00217185
X0019304Y00249428
X00171704Y0025146
X0026797Y00165354
X00279654Y00170942
X0030493Y00188214
X0032131Y0018415
X0032893Y0019431
X00330454Y00155194
X00336804Y00160782
X00345186Y00161036
X00345948Y00144526
X00322326Y0015113
X00342646Y00115062
X00336804Y00107188
X00302768Y0010414
X00423164Y001524
X0042291Y00162052
X0047117Y001143
T03
X004516Y000508
Y000762
Y001016
Y00127
Y001524
Y001778
Y002032
Y002286
Y00254
Y002794
T04
X0016764Y0003556
X0019304
X0021844
X0024384
X0026924
X0029464
X0014224
X0011684
T05
X0001778Y0027686
Y0030226
Y0032766
X0004318
Y0030226
Y0027686
T06
X0003556Y0002032
Y0004572
Y0007112
Y0009652
Y0012192
Y0014732
X0045212Y0031242
Y0033782
Y0036322
Y0038862
Y0041402
Y0043942
M30
