G04*
G04 #@! TF.GenerationSoftware,Altium Limited,Altium Designer,25.4.2 (15)*
G04*
G04 Layer_Color=65535*
%FSLAX44Y44*%
%MOMM*%
G71*
G04*
G04 #@! TF.SameCoordinates,9A7FD730-A280-42E6-8FDC-0554BF83374D*
G04*
G04*
G04 #@! TF.FilePolarity,Positive*
G04*
G01*
G75*
%ADD10C,0.2000*%
%ADD11C,0.2500*%
%ADD12C,0.5080*%
%ADD13C,0.6000*%
%ADD14C,0.1270*%
%ADD15C,0.1524*%
%ADD16C,0.1016*%
D10*
X18780Y345960D02*
G03*
X18780Y345960I-1000J0D01*
G01*
X222130Y213580D02*
G03*
X222130Y213580I-1000J0D01*
G01*
X324810Y277650D02*
X381310D01*
X383060Y235400D02*
Y259900D01*
X324810Y217650D02*
X381310D01*
X323060Y235400D02*
Y259900D01*
X121500Y103770D02*
X132500D01*
X121500Y89270D02*
X132500D01*
X149181Y103770D02*
X160181D01*
X149181Y89270D02*
X160181D01*
X331880Y417290D02*
X351380D01*
X331880Y451390D02*
X351380D01*
X66310Y6370D02*
Y161270D01*
X4810Y6370D02*
X66310D01*
X4810D02*
Y161270D01*
X66310D01*
X482870Y298470D02*
Y453370D01*
X421370Y298470D02*
X482870D01*
X421370D02*
Y453370D01*
X482870D01*
X418350Y292600D02*
X483350D01*
X418350Y37600D02*
Y292600D01*
Y37600D02*
X483350D01*
Y292600D01*
X-13180Y370860D02*
X-5930D01*
X23570D02*
X36070D01*
X-13180D02*
Y462260D01*
X-5930D01*
X23570D02*
X36070D01*
X28760Y250670D02*
X69760D01*
X28760Y183670D02*
X69760D01*
X28760D02*
Y250670D01*
X69760Y183670D02*
Y250670D01*
X393590Y418840D02*
X406590D01*
X393590D02*
Y426340D01*
Y449840D02*
X406590D01*
X393590Y442340D02*
Y449840D01*
X298885Y368380D02*
X318885D01*
X298885Y345380D02*
X318885D01*
X261714Y94576D02*
Y128576D01*
X224214Y94576D02*
Y128576D01*
X146370Y317820D02*
X151370D01*
X146370D02*
Y322820D01*
X181370Y317820D02*
X186370D01*
Y322820D01*
X146370Y357820D02*
X151370D01*
X146370Y352820D02*
Y357820D01*
X181370D02*
X186370D01*
Y352820D02*
Y357820D01*
X91095Y249345D02*
X119217D01*
X91095Y231223D02*
X119217D01*
X91237Y231311D02*
X119359D01*
X91237Y213189D02*
X119359D01*
X91349Y203117D02*
X119471D01*
X91349Y184995D02*
X119471D01*
X91349Y185083D02*
X119471D01*
X91349Y166961D02*
X119471D01*
X165517Y386251D02*
X193639D01*
X165517Y368129D02*
X193639D01*
X165517Y406317D02*
X193639D01*
X165517Y388195D02*
X193639D01*
X218349Y399879D02*
X246471D01*
X218349Y418001D02*
X246471D01*
X218349Y382099D02*
X246471D01*
X218349Y400221D02*
X246471D01*
X218349Y364319D02*
X246471D01*
X218349Y382441D02*
X246471D01*
X375067Y110065D02*
X403189D01*
X375067Y128187D02*
X403189D01*
X229129Y133179D02*
X257251D01*
X229129Y151301D02*
X257251D01*
X229017Y153245D02*
X257139D01*
X229017Y171367D02*
X257139D01*
X375321Y146133D02*
X403443D01*
X375321Y164255D02*
X403443D01*
X361239Y209721D02*
X389361D01*
X361239Y191599D02*
X389361D01*
X190671Y178359D02*
Y206481D01*
X172549Y178359D02*
Y206481D01*
X210991Y178359D02*
Y206481D01*
X192869Y178359D02*
Y206481D01*
X375067Y110153D02*
X403189D01*
X375067Y92031D02*
X403189D01*
X375067Y92119D02*
X403189D01*
X375067Y73997D02*
X403189D01*
X375209Y146221D02*
X403330D01*
X375209Y128099D02*
X403330D01*
X446949Y11259D02*
X475071D01*
X446949Y29381D02*
X475071D01*
X303359Y280579D02*
Y308701D01*
X321481Y280579D02*
Y308701D01*
X390431Y310569D02*
Y338691D01*
X372309Y310569D02*
Y338691D01*
X372397Y310569D02*
Y338691D01*
X354275Y310569D02*
Y338691D01*
X189759Y91269D02*
X217881D01*
X189759Y109391D02*
X217881D01*
X189759Y127425D02*
X217881D01*
X189759Y109303D02*
X217881D01*
X279929Y417659D02*
X308051D01*
X279929Y435781D02*
X308051D01*
X286430Y99450D02*
Y160450D01*
X347430Y99450D02*
Y160450D01*
X286430D02*
X347430D01*
X286430Y99450D02*
X347430D01*
X339610Y371180D02*
X365610D01*
Y345180D02*
Y345680D01*
Y370680D02*
Y371180D01*
X339610Y345180D02*
X365610D01*
X339610D02*
Y345680D01*
Y370680D02*
Y371180D01*
D11*
X301310Y270150D02*
G03*
X301310Y270150I-1250J0D01*
G01*
X115000Y96520D02*
G03*
X115000Y96520I-1250J0D01*
G01*
X142681D02*
G03*
X142681Y96520I-1250J0D01*
G01*
X36810Y167270D02*
G03*
X36810Y167270I-1250J0D01*
G01*
X453370Y459370D02*
G03*
X453370Y459370I-1250J0D01*
G01*
X452100Y298600D02*
G03*
X452100Y298600I-1250J0D01*
G01*
X67320Y448510D02*
G03*
X67320Y448510I-1250J0D01*
G01*
X81260Y184170D02*
G03*
X81260Y184170I-1250J0D01*
G01*
X287574Y363380D02*
G03*
X287574Y363380I-1250J0D01*
G01*
X252964Y87826D02*
G03*
X252964Y87826I-1250J0D01*
G01*
X157620Y305466D02*
G03*
X157620Y305466I-1250J0D01*
G01*
X276680Y166200D02*
G03*
X276680Y166200I-1250J0D01*
G01*
X330180Y360934D02*
G03*
X330180Y360934I-1250J0D01*
G01*
D12*
X329438Y35560D02*
G03*
X321818Y35560I-3810J0D01*
G01*
D02*
G03*
X329438Y35560I3810J0D01*
G01*
D13*
X299430Y150450D02*
G03*
X299430Y150450I-3000J0D01*
G01*
D14*
X5080Y340360D02*
X55880D01*
X5080Y264160D02*
Y340360D01*
Y264160D02*
X55880D01*
Y340360D01*
X175230Y242280D02*
X203230D01*
X175230Y212380D02*
X203230D01*
X307214Y259926D02*
X306156Y260984D01*
X304040D01*
X302982Y259926D01*
Y258868D01*
X304040Y257810D01*
X306156D01*
X307214Y256752D01*
Y255694D01*
X306156Y254636D01*
X304040D01*
X302982Y255694D01*
X309330Y260984D02*
Y254636D01*
X311446Y256752D01*
X313562Y254636D01*
Y260984D01*
X315678Y254636D02*
X317794D01*
X316736D01*
Y260984D01*
X315678Y259926D01*
X408856Y78339D02*
X407798Y77281D01*
Y75165D01*
X408856Y74107D01*
X413088D01*
X414146Y75165D01*
Y77281D01*
X413088Y78339D01*
X414146Y80455D02*
Y82571D01*
Y81513D01*
X407798D01*
X408856Y80455D01*
X413088Y85745D02*
X414146Y86803D01*
Y88919D01*
X413088Y89977D01*
X408856D01*
X407798Y88919D01*
Y86803D01*
X408856Y85745D01*
X409914D01*
X410972Y86803D01*
Y89977D01*
X408856Y98151D02*
X407798Y97093D01*
Y94977D01*
X408856Y93919D01*
X413088D01*
X414146Y94977D01*
Y97093D01*
X413088Y98151D01*
X414146Y100267D02*
Y102383D01*
Y101325D01*
X407798D01*
X408856Y100267D01*
Y105557D02*
X407798Y106615D01*
Y108731D01*
X408856Y109789D01*
X409914D01*
X410972Y108731D01*
X412030Y109789D01*
X413088D01*
X414146Y108731D01*
Y106615D01*
X413088Y105557D01*
X412030D01*
X410972Y106615D01*
X409914Y105557D01*
X408856D01*
X410972Y106615D02*
Y108731D01*
X408744Y135976D02*
X407686Y134918D01*
Y132802D01*
X408744Y131744D01*
X412976D01*
X414034Y132802D01*
Y134918D01*
X412976Y135976D01*
X414034Y142324D02*
Y138092D01*
X409802Y142324D01*
X408744D01*
X407686Y141266D01*
Y139150D01*
X408744Y138092D01*
Y144440D02*
X407686Y145498D01*
Y147614D01*
X408744Y148672D01*
X412976D01*
X414034Y147614D01*
Y145498D01*
X412976Y144440D01*
X408744D01*
X407036Y265642D02*
Y263526D01*
Y264584D01*
X412326D01*
X413384Y263526D01*
Y262468D01*
X412326Y261410D01*
X407036Y271990D02*
X408094Y269874D01*
X410210Y267758D01*
X412326D01*
X413384Y268816D01*
Y270932D01*
X412326Y271990D01*
X411268D01*
X410210Y270932D01*
Y267758D01*
X408602Y118259D02*
X407544Y117201D01*
Y115085D01*
X408602Y114027D01*
X412834D01*
X413892Y115085D01*
Y117201D01*
X412834Y118259D01*
X413892Y120375D02*
Y122491D01*
Y121433D01*
X407544D01*
X408602Y120375D01*
X413892Y125665D02*
Y127781D01*
Y126723D01*
X407544D01*
X408602Y125665D01*
X386208Y58292D02*
X381976D01*
Y55118D01*
X384092D01*
X381976D01*
Y51944D01*
X388324Y58292D02*
Y51944D01*
X391498D01*
X392556Y53002D01*
Y54060D01*
X391498Y55118D01*
X388324D01*
X391498D01*
X392556Y56176D01*
Y57234D01*
X391498Y58292D01*
X388324D01*
X394672Y51944D02*
X396788D01*
X395730D01*
Y58292D01*
X394672Y57234D01*
X302894Y197297D02*
X296546D01*
Y200471D01*
X297604Y201529D01*
X299720D01*
X300778Y200471D01*
Y197297D01*
Y199413D02*
X302894Y201529D01*
Y203645D02*
Y205761D01*
Y204703D01*
X296546D01*
X297604Y203645D01*
Y208935D02*
X296546Y209993D01*
Y212109D01*
X297604Y213167D01*
X298662D01*
X299720Y212109D01*
X300778Y213167D01*
X301836D01*
X302894Y212109D01*
Y209993D01*
X301836Y208935D01*
X300778D01*
X299720Y209993D01*
X298662Y208935D01*
X297604D01*
X299720Y209993D02*
Y212109D01*
X126196Y224112D02*
X125138Y225170D01*
X123022D01*
X121964Y224112D01*
Y219880D01*
X123022Y218822D01*
X125138D01*
X126196Y219880D01*
X132544Y218822D02*
X128312D01*
X132544Y223054D01*
Y224112D01*
X131486Y225170D01*
X129370D01*
X128312Y224112D01*
X266490Y179704D02*
Y174414D01*
X267548Y173356D01*
X269664D01*
X270722Y174414D01*
Y179704D01*
X272838Y178646D02*
X273896Y179704D01*
X276012D01*
X277070Y178646D01*
Y177588D01*
X276012Y176530D01*
X274954D01*
X276012D01*
X277070Y175472D01*
Y174414D01*
X276012Y173356D01*
X273896D01*
X272838Y174414D01*
X379075Y173820D02*
X378017Y174878D01*
X375901D01*
X374843Y173820D01*
Y169588D01*
X375901Y168530D01*
X378017D01*
X379075Y169588D01*
X381191Y168530D02*
X383307D01*
X382249D01*
Y174878D01*
X381191Y173820D01*
X389655Y168530D02*
Y174878D01*
X386481Y171704D01*
X390713D01*
X19558Y247776D02*
X17442D01*
X18500D01*
Y242486D01*
X17442Y241428D01*
X16384D01*
X15326Y242486D01*
X21674Y241428D02*
X23790D01*
X22732D01*
Y247776D01*
X21674Y246718D01*
X217594Y138537D02*
X216536Y137479D01*
Y135363D01*
X217594Y134305D01*
X221826D01*
X222884Y135363D01*
Y137479D01*
X221826Y138537D01*
X222884Y140653D02*
Y142769D01*
Y141711D01*
X216536D01*
X217594Y140653D01*
X222884Y150175D02*
Y145943D01*
X218652Y150175D01*
X217594D01*
X216536Y149117D01*
Y147001D01*
X217594Y145943D01*
X129118Y353694D02*
Y348404D01*
X130176Y347346D01*
X132292D01*
X133350Y348404D01*
Y353694D01*
X135466Y347346D02*
X137582D01*
X136524D01*
Y353694D01*
X135466Y352636D01*
X233835Y345804D02*
Y352152D01*
X237009D01*
X238067Y351094D01*
Y348978D01*
X237009Y347920D01*
X233835D01*
X235951D02*
X238067Y345804D01*
X244415Y352152D02*
X242299Y351094D01*
X240183Y348978D01*
Y346862D01*
X241241Y345804D01*
X243357D01*
X244415Y346862D01*
Y347920D01*
X243357Y348978D01*
X240183D01*
X390820Y458512D02*
Y462744D01*
X389762Y463802D01*
X387646D01*
X386588Y462744D01*
Y458512D01*
X387646Y457454D01*
X389762D01*
X388704Y459570D02*
X390820Y457454D01*
X389762D02*
X390820Y458512D01*
X392936Y457454D02*
X395052D01*
X393994D01*
Y463802D01*
X392936Y462744D01*
X233978Y334900D02*
Y341248D01*
X237152D01*
X238210Y340190D01*
Y338074D01*
X237152Y337016D01*
X233978D01*
X236094D02*
X238210Y334900D01*
X240326Y341248D02*
X244558D01*
Y340190D01*
X240326Y335958D01*
Y334900D01*
X117900Y417194D02*
Y410846D01*
X121074D01*
X122132Y411904D01*
Y416136D01*
X121074Y417194D01*
X117900D01*
X128480D02*
X124248D01*
Y414020D01*
X126364Y415078D01*
X127422D01*
X128480Y414020D01*
Y411904D01*
X127422Y410846D01*
X125306D01*
X124248Y411904D01*
X90536Y314326D02*
Y320674D01*
X93710D01*
X94768Y319616D01*
Y317500D01*
X93710Y316442D01*
X90536D01*
X92652D02*
X94768Y314326D01*
X101116D02*
X96884D01*
X101116Y318558D01*
Y319616D01*
X100058Y320674D01*
X97942D01*
X96884Y319616D01*
X103232D02*
X104290Y320674D01*
X106406D01*
X107464Y319616D01*
Y315384D01*
X106406Y314326D01*
X104290D01*
X103232Y315384D01*
Y319616D01*
X126618Y363518D02*
X120270D01*
Y366692D01*
X121328Y367750D01*
X123444D01*
X124502Y366692D01*
Y363518D01*
Y365634D02*
X126618Y367750D01*
X121328Y369866D02*
X120270Y370924D01*
Y373040D01*
X121328Y374098D01*
X122386D01*
X123444Y373040D01*
Y371982D01*
Y373040D01*
X124502Y374098D01*
X125560D01*
X126618Y373040D01*
Y370924D01*
X125560Y369866D01*
X279314Y449536D02*
X278256Y450594D01*
X276140D01*
X275082Y449536D01*
Y445304D01*
X276140Y444246D01*
X278256D01*
X279314Y445304D01*
X285662Y450594D02*
X281430D01*
Y447420D01*
X283546Y448478D01*
X284604D01*
X285662Y447420D01*
Y445304D01*
X284604Y444246D01*
X282488D01*
X281430Y445304D01*
X227302Y89350D02*
Y88292D01*
X229418Y86176D01*
X231534Y88292D01*
Y89350D01*
X229418Y86176D02*
Y83002D01*
X233650D02*
X235766D01*
X234708D01*
Y89350D01*
X233650Y88292D01*
X332486Y385824D02*
Y380534D01*
X333544Y379476D01*
X335660D01*
X336718Y380534D01*
Y385824D01*
X343066D02*
X338834D01*
Y382650D01*
X340950Y383708D01*
X342008D01*
X343066Y382650D01*
Y380534D01*
X342008Y379476D01*
X339892D01*
X338834Y380534D01*
X284988Y385570D02*
Y380280D01*
X286046Y379222D01*
X288162D01*
X289220Y380280D01*
Y385570D01*
X294510Y379222D02*
Y385570D01*
X291336Y382396D01*
X295568D01*
X163068Y257554D02*
Y252264D01*
X164126Y251206D01*
X166242D01*
X167300Y252264D01*
Y257554D01*
X173648Y251206D02*
X169416D01*
X173648Y255438D01*
Y256496D01*
X172590Y257554D01*
X170474D01*
X169416Y256496D01*
X234554Y302896D02*
Y309244D01*
X237728D01*
X238786Y308186D01*
Y306070D01*
X237728Y305012D01*
X234554D01*
X236670D02*
X238786Y302896D01*
X245134D02*
X240902D01*
X245134Y307128D01*
Y308186D01*
X244076Y309244D01*
X241960D01*
X240902Y308186D01*
X251482Y309244D02*
X247250D01*
Y306070D01*
X249366Y307128D01*
X250424D01*
X251482Y306070D01*
Y303954D01*
X250424Y302896D01*
X248308D01*
X247250Y303954D01*
X145414Y281096D02*
X139066D01*
Y284270D01*
X140124Y285328D01*
X142240D01*
X143298Y284270D01*
Y281096D01*
Y283212D02*
X145414Y285328D01*
Y291676D02*
Y287444D01*
X141182Y291676D01*
X140124D01*
X139066Y290618D01*
Y288502D01*
X140124Y287444D01*
X145414Y296966D02*
X139066D01*
X142240Y293792D01*
Y298024D01*
X193674Y281096D02*
X187326D01*
Y284270D01*
X188384Y285328D01*
X190500D01*
X191558Y284270D01*
Y281096D01*
Y283212D02*
X193674Y285328D01*
Y291676D02*
Y287444D01*
X189442Y291676D01*
X188384D01*
X187326Y290618D01*
Y288502D01*
X188384Y287444D01*
Y293792D02*
X187326Y294850D01*
Y296966D01*
X188384Y298024D01*
X189442D01*
X190500Y296966D01*
Y295908D01*
Y296966D01*
X191558Y298024D01*
X192616D01*
X193674Y296966D01*
Y294850D01*
X192616Y293792D01*
X157906Y268606D02*
Y274954D01*
X161080D01*
X162138Y273896D01*
Y271780D01*
X161080Y270722D01*
X157906D01*
X160022D02*
X162138Y268606D01*
X168486D02*
X164254D01*
X168486Y272838D01*
Y273896D01*
X167428Y274954D01*
X165312D01*
X164254Y273896D01*
X174834Y268606D02*
X170602D01*
X174834Y272838D01*
Y273896D01*
X173776Y274954D01*
X171660D01*
X170602Y273896D01*
X376682Y370586D02*
Y376934D01*
X379856D01*
X380914Y375876D01*
Y373760D01*
X379856Y372702D01*
X376682D01*
X378798D02*
X380914Y370586D01*
X387262D02*
X383030D01*
X387262Y374818D01*
Y375876D01*
X386204Y376934D01*
X384088D01*
X383030Y375876D01*
X389378Y370586D02*
X391494D01*
X390436D01*
Y376934D01*
X389378Y375876D01*
X91185Y333376D02*
Y339724D01*
X94359D01*
X95417Y338666D01*
Y336550D01*
X94359Y335492D01*
X91185D01*
X93301D02*
X95417Y333376D01*
X97533D02*
X99649D01*
X98591D01*
Y339724D01*
X97533Y338666D01*
X102823Y334434D02*
X103881Y333376D01*
X105997D01*
X107055Y334434D01*
Y338666D01*
X105997Y339724D01*
X103881D01*
X102823Y338666D01*
Y337608D01*
X103881Y336550D01*
X107055D01*
X139385Y250318D02*
Y256666D01*
X142559D01*
X143617Y255608D01*
Y253492D01*
X142559Y252434D01*
X139385D01*
X141501D02*
X143617Y250318D01*
X145733D02*
X147849D01*
X146791D01*
Y256666D01*
X145733Y255608D01*
X151023Y256666D02*
X155255D01*
Y255608D01*
X151023Y251376D01*
Y250318D01*
X249875Y236856D02*
Y243204D01*
X253049D01*
X254107Y242146D01*
Y240030D01*
X253049Y238972D01*
X249875D01*
X251991D02*
X254107Y236856D01*
X256223D02*
X258339D01*
X257281D01*
Y243204D01*
X256223Y242146D01*
X265745Y243204D02*
X263629Y242146D01*
X261513Y240030D01*
Y237914D01*
X262571Y236856D01*
X264687D01*
X265745Y237914D01*
Y238972D01*
X264687Y240030D01*
X261513D01*
X139385Y214758D02*
Y221106D01*
X142559D01*
X143617Y220048D01*
Y217932D01*
X142559Y216874D01*
X139385D01*
X141501D02*
X143617Y214758D01*
X145733D02*
X147849D01*
X146791D01*
Y221106D01*
X145733Y220048D01*
X155255Y221106D02*
X151023D01*
Y217932D01*
X153139Y218990D01*
X154197D01*
X155255Y217932D01*
Y215816D01*
X154197Y214758D01*
X152081D01*
X151023Y215816D01*
X249875Y225426D02*
Y231774D01*
X253049D01*
X254107Y230716D01*
Y228600D01*
X253049Y227542D01*
X249875D01*
X251991D02*
X254107Y225426D01*
X256223D02*
X258339D01*
X257281D01*
Y231774D01*
X256223Y230716D01*
X264687Y225426D02*
Y231774D01*
X261513Y228600D01*
X265745D01*
X234635Y323216D02*
Y329564D01*
X237809D01*
X238867Y328506D01*
Y326390D01*
X237809Y325332D01*
X234635D01*
X236751D02*
X238867Y323216D01*
X240983D02*
X243099D01*
X242041D01*
Y329564D01*
X240983Y328506D01*
X246273D02*
X247331Y329564D01*
X249447D01*
X250505Y328506D01*
Y327448D01*
X249447Y326390D01*
X248389D01*
X249447D01*
X250505Y325332D01*
Y324274D01*
X249447Y323216D01*
X247331D01*
X246273Y324274D01*
X234575Y313056D02*
Y319404D01*
X237749D01*
X238807Y318346D01*
Y316230D01*
X237749Y315172D01*
X234575D01*
X236691D02*
X238807Y313056D01*
X240923D02*
X243039D01*
X241981D01*
Y319404D01*
X240923Y318346D01*
X250445Y313056D02*
X246213D01*
X250445Y317288D01*
Y318346D01*
X249387Y319404D01*
X247271D01*
X246213Y318346D01*
X197593Y374076D02*
Y380424D01*
X200767D01*
X201825Y379366D01*
Y377250D01*
X200767Y376192D01*
X197593D01*
X199709D02*
X201825Y374076D01*
X203941D02*
X206057D01*
X204999D01*
Y380424D01*
X203941Y379366D01*
X209231Y374076D02*
X211347D01*
X210289D01*
Y380424D01*
X209231Y379366D01*
X77155Y386716D02*
Y393064D01*
X80329D01*
X81387Y392006D01*
Y389890D01*
X80329Y388832D01*
X77155D01*
X79271D02*
X81387Y386716D01*
X83503D02*
X85619D01*
X84561D01*
Y393064D01*
X83503Y392006D01*
X88793D02*
X89851Y393064D01*
X91967D01*
X93025Y392006D01*
Y387774D01*
X91967Y386716D01*
X89851D01*
X88793Y387774D01*
Y392006D01*
X145288Y121412D02*
Y127760D01*
X148462D01*
X149520Y126702D01*
Y124586D01*
X148462Y123528D01*
X145288D01*
X147404D02*
X149520Y121412D01*
X151636Y122470D02*
X152694Y121412D01*
X154810D01*
X155868Y122470D01*
Y126702D01*
X154810Y127760D01*
X152694D01*
X151636Y126702D01*
Y125644D01*
X152694Y124586D01*
X155868D01*
X114808Y121412D02*
Y127760D01*
X117982D01*
X119040Y126702D01*
Y124586D01*
X117982Y123528D01*
X114808D01*
X116924D02*
X119040Y121412D01*
X121156Y126702D02*
X122214Y127760D01*
X124330D01*
X125388Y126702D01*
Y125644D01*
X124330Y124586D01*
X125388Y123528D01*
Y122470D01*
X124330Y121412D01*
X122214D01*
X121156Y122470D01*
Y123528D01*
X122214Y124586D01*
X121156Y125644D01*
Y126702D01*
X122214Y124586D02*
X124330D01*
X133732Y400260D02*
X140080D01*
Y397086D01*
X139022Y396028D01*
X136906D01*
X135848Y397086D01*
Y400260D01*
Y398144D02*
X133732Y396028D01*
Y390738D02*
X140080D01*
X136906Y393912D01*
Y389680D01*
X166160Y424816D02*
Y431164D01*
X169334D01*
X170392Y430106D01*
Y427990D01*
X169334Y426932D01*
X166160D01*
X168276D02*
X170392Y424816D01*
X176740D02*
X172508D01*
X176740Y429048D01*
Y430106D01*
X175682Y431164D01*
X173566D01*
X172508Y430106D01*
X389254Y405978D02*
X382906D01*
Y409152D01*
X383964Y410210D01*
X386080D01*
X387138Y409152D01*
Y405978D01*
Y408094D02*
X389254Y410210D01*
Y412326D02*
Y414442D01*
Y413384D01*
X382906D01*
X383964Y412326D01*
X468842Y464184D02*
X466726D01*
X467784D01*
Y458894D01*
X466726Y457836D01*
X465668D01*
X464610Y458894D01*
X470958Y464184D02*
X475190D01*
Y463126D01*
X470958Y458894D01*
Y457836D01*
X108372Y82802D02*
X106256D01*
X107314D01*
Y77512D01*
X106256Y76454D01*
X105198D01*
X104140Y77512D01*
X114720Y82802D02*
X110488D01*
Y79628D01*
X112604Y80686D01*
X113662D01*
X114720Y79628D01*
Y77512D01*
X113662Y76454D01*
X111546D01*
X110488Y77512D01*
X8296Y182370D02*
X6180D01*
X7238D01*
Y177080D01*
X6180Y176022D01*
X5122D01*
X4064Y177080D01*
X13586Y176022D02*
Y182370D01*
X10412Y179196D01*
X14644D01*
X29422Y351154D02*
X27306D01*
X28364D01*
Y345864D01*
X27306Y344806D01*
X26248D01*
X25190Y345864D01*
X31538Y350096D02*
X32596Y351154D01*
X34712D01*
X35770Y350096D01*
Y349038D01*
X34712Y347980D01*
X33654D01*
X34712D01*
X35770Y346922D01*
Y345864D01*
X34712Y344806D01*
X32596D01*
X31538Y345864D01*
X67522Y464184D02*
X65406D01*
X66464D01*
Y458894D01*
X65406Y457836D01*
X64348D01*
X63290Y458894D01*
X73870Y457836D02*
X69638D01*
X73870Y462068D01*
Y463126D01*
X72812Y464184D01*
X70696D01*
X69638Y463126D01*
X316652Y466088D02*
X312420D01*
Y462914D01*
X314536D01*
X312420D01*
Y459740D01*
X318768D02*
X320884D01*
X319826D01*
Y466088D01*
X318768Y465030D01*
X116070Y447674D02*
Y441326D01*
X119244D01*
X120302Y442384D01*
Y446616D01*
X119244Y447674D01*
X116070D01*
X125592Y441326D02*
Y447674D01*
X122418Y444500D01*
X126650D01*
X99410Y367664D02*
Y361316D01*
X102584D01*
X103642Y362374D01*
Y366606D01*
X102584Y367664D01*
X99410D01*
X105758Y366606D02*
X106816Y367664D01*
X108932D01*
X109990Y366606D01*
Y365548D01*
X108932Y364490D01*
X107874D01*
X108932D01*
X109990Y363432D01*
Y362374D01*
X108932Y361316D01*
X106816D01*
X105758Y362374D01*
X166160Y99694D02*
Y93346D01*
X169334D01*
X170392Y94404D01*
Y98636D01*
X169334Y99694D01*
X166160D01*
X176740Y93346D02*
X172508D01*
X176740Y97578D01*
Y98636D01*
X175682Y99694D01*
X173566D01*
X172508Y98636D01*
X98638Y99694D02*
Y93346D01*
X101812D01*
X102870Y94404D01*
Y98636D01*
X101812Y99694D01*
X98638D01*
X104986Y93346D02*
X107102D01*
X106044D01*
Y99694D01*
X104986Y98636D01*
X193888Y138006D02*
X192830Y139064D01*
X190714D01*
X189656Y138006D01*
Y133774D01*
X190714Y132716D01*
X192830D01*
X193888Y133774D01*
X200236Y132716D02*
X196004D01*
X200236Y136948D01*
Y138006D01*
X199178Y139064D01*
X197062D01*
X196004Y138006D01*
X206584Y139064D02*
X204468Y138006D01*
X202352Y135890D01*
Y133774D01*
X203410Y132716D01*
X205526D01*
X206584Y133774D01*
Y134832D01*
X205526Y135890D01*
X202352D01*
X193888Y85936D02*
X192830Y86994D01*
X190714D01*
X189656Y85936D01*
Y81704D01*
X190714Y80646D01*
X192830D01*
X193888Y81704D01*
X200236Y80646D02*
X196004D01*
X200236Y84878D01*
Y85936D01*
X199178Y86994D01*
X197062D01*
X196004Y85936D01*
X206584Y86994D02*
X202352D01*
Y83820D01*
X204468Y84878D01*
X205526D01*
X206584Y83820D01*
Y81704D01*
X205526Y80646D01*
X203410D01*
X202352Y81704D01*
X359358Y304536D02*
X358300Y305594D01*
X356184D01*
X355126Y304536D01*
Y300304D01*
X356184Y299246D01*
X358300D01*
X359358Y300304D01*
X365706Y299246D02*
X361474D01*
X365706Y303478D01*
Y304536D01*
X364648Y305594D01*
X362532D01*
X361474Y304536D01*
X370996Y299246D02*
Y305594D01*
X367822Y302420D01*
X372054D01*
X380948Y304536D02*
X379890Y305594D01*
X377774D01*
X376716Y304536D01*
Y300304D01*
X377774Y299246D01*
X379890D01*
X380948Y300304D01*
X387296Y299246D02*
X383064D01*
X387296Y303478D01*
Y304536D01*
X386238Y305594D01*
X384122D01*
X383064Y304536D01*
X389412D02*
X390470Y305594D01*
X392586D01*
X393644Y304536D01*
Y303478D01*
X392586Y302420D01*
X391528D01*
X392586D01*
X393644Y301362D01*
Y300304D01*
X392586Y299246D01*
X390470D01*
X389412Y300304D01*
X297923Y298808D02*
X298981Y299865D01*
Y301982D01*
X297923Y303039D01*
X293691D01*
X292633Y301982D01*
Y299865D01*
X293691Y298808D01*
X292633Y292460D02*
Y296692D01*
X296865Y292460D01*
X297923D01*
X298981Y293518D01*
Y295634D01*
X297923Y296692D01*
X292633Y286112D02*
Y290344D01*
X296865Y286112D01*
X297923D01*
X298981Y287170D01*
Y289286D01*
X297923Y290344D01*
X437304Y17146D02*
X436246Y16088D01*
Y13972D01*
X437304Y12914D01*
X441536D01*
X442594Y13972D01*
Y16088D01*
X441536Y17146D01*
X442594Y23494D02*
Y19262D01*
X438362Y23494D01*
X437304D01*
X436246Y22436D01*
Y20320D01*
X437304Y19262D01*
X442594Y25610D02*
Y27726D01*
Y26668D01*
X436246D01*
X437304Y25610D01*
X199497Y172296D02*
X198439Y173354D01*
X196323D01*
X195265Y172296D01*
Y168064D01*
X196323Y167006D01*
X198439D01*
X199497Y168064D01*
X201613Y167006D02*
X203729D01*
X202671D01*
Y173354D01*
X201613Y172296D01*
X206903Y173354D02*
X211135D01*
Y172296D01*
X206903Y168064D01*
Y167006D01*
X177907Y172296D02*
X176849Y173354D01*
X174733D01*
X173675Y172296D01*
Y168064D01*
X174733Y167006D01*
X176849D01*
X177907Y168064D01*
X180023Y167006D02*
X182139D01*
X181081D01*
Y173354D01*
X180023Y172296D01*
X189545Y173354D02*
X187429Y172296D01*
X185313Y170180D01*
Y168064D01*
X186371Y167006D01*
X188487D01*
X189545Y168064D01*
Y169122D01*
X188487Y170180D01*
X185313D01*
X345547Y210396D02*
X344489Y211454D01*
X342373D01*
X341315Y210396D01*
Y206164D01*
X342373Y205106D01*
X344489D01*
X345547Y206164D01*
X347663Y205106D02*
X349779D01*
X348721D01*
Y211454D01*
X347663Y210396D01*
X357185Y211454D02*
X352953D01*
Y208280D01*
X355069Y209338D01*
X356127D01*
X357185Y208280D01*
Y206164D01*
X356127Y205106D01*
X354011D01*
X352953Y206164D01*
X217086Y159365D02*
X216028Y158307D01*
Y156191D01*
X217086Y155133D01*
X221318D01*
X222376Y156191D01*
Y158307D01*
X221318Y159365D01*
X222376Y161481D02*
Y163597D01*
Y162539D01*
X216028D01*
X217086Y161481D01*
Y166771D02*
X216028Y167829D01*
Y169945D01*
X217086Y171003D01*
X218144D01*
X219202Y169945D01*
Y168887D01*
Y169945D01*
X220260Y171003D01*
X221318D01*
X222376Y169945D01*
Y167829D01*
X221318Y166771D01*
X251742Y368407D02*
X250684Y367349D01*
Y365233D01*
X251742Y364175D01*
X255974D01*
X257032Y365233D01*
Y367349D01*
X255974Y368407D01*
X257032Y370523D02*
Y372639D01*
Y371581D01*
X250684D01*
X251742Y370523D01*
Y375813D02*
X250684Y376871D01*
Y378987D01*
X251742Y380045D01*
X255974D01*
X257032Y378987D01*
Y376871D01*
X255974Y375813D01*
X251742D01*
X251742Y388832D02*
X250684Y387774D01*
Y385658D01*
X251742Y384600D01*
X255974D01*
X257032Y385658D01*
Y387774D01*
X255974Y388832D01*
Y390948D02*
X257032Y392006D01*
Y394122D01*
X255974Y395180D01*
X251742D01*
X250684Y394122D01*
Y392006D01*
X251742Y390948D01*
X252800D01*
X253858Y392006D01*
Y395180D01*
X251742Y407882D02*
X250684Y406824D01*
Y404708D01*
X251742Y403650D01*
X255974D01*
X257032Y404708D01*
Y406824D01*
X255974Y407882D01*
X251742Y409998D02*
X250684Y411056D01*
Y413172D01*
X251742Y414230D01*
X252800D01*
X253858Y413172D01*
X254916Y414230D01*
X255974D01*
X257032Y413172D01*
Y411056D01*
X255974Y409998D01*
X254916D01*
X253858Y411056D01*
X252800Y409998D01*
X251742D01*
X253858Y411056D02*
Y413172D01*
X156634Y397722D02*
X155576Y396664D01*
Y394548D01*
X156634Y393490D01*
X160866D01*
X161924Y394548D01*
Y396664D01*
X160866Y397722D01*
X155576Y399838D02*
Y404070D01*
X156634D01*
X160866Y399838D01*
X161924D01*
X156492Y377402D02*
X155434Y376344D01*
Y374228D01*
X156492Y373170D01*
X160724D01*
X161782Y374228D01*
Y376344D01*
X160724Y377402D01*
X155434Y383750D02*
X156492Y381634D01*
X158608Y379518D01*
X160724D01*
X161782Y380576D01*
Y382692D01*
X160724Y383750D01*
X159666D01*
X158608Y382692D01*
Y379518D01*
X105622Y160866D02*
X104564Y161924D01*
X102448D01*
X101390Y160866D01*
Y156634D01*
X102448Y155576D01*
X104564D01*
X105622Y156634D01*
X110912Y155576D02*
Y161924D01*
X107738Y158750D01*
X111970D01*
X127466Y196426D02*
X126408Y197484D01*
X124292D01*
X123234Y196426D01*
Y192194D01*
X124292Y191136D01*
X126408D01*
X127466Y192194D01*
X129582Y196426D02*
X130640Y197484D01*
X132756D01*
X133814Y196426D01*
Y195368D01*
X132756Y194310D01*
X131698D01*
X132756D01*
X133814Y193252D01*
Y192194D01*
X132756Y191136D01*
X130640D01*
X129582Y192194D01*
X126238Y243162D02*
X125180Y244220D01*
X123064D01*
X122006Y243162D01*
Y238930D01*
X123064Y237872D01*
X125180D01*
X126238Y238930D01*
X128354Y237872D02*
X130470D01*
X129412D01*
Y244220D01*
X128354Y243162D01*
D15*
X103632Y69342D02*
X307848D01*
X103632Y3302D02*
Y69342D01*
Y3302D02*
X307848D01*
Y69342D01*
X393640Y405130D02*
Y415290D01*
Y405130D02*
X413960D01*
Y415290D01*
X393640D02*
X413960D01*
X166310Y410210D02*
Y420370D01*
Y410210D02*
X186630D01*
Y420370D01*
X166310D02*
X186630D01*
X119380Y384750D02*
X129540D01*
Y405070D01*
X119380D02*
X129540D01*
X119380Y384750D02*
Y405070D01*
X114300Y106680D02*
Y116840D01*
Y106680D02*
X134620D01*
Y116840D01*
X114300D02*
X134620D01*
X144840Y106680D02*
Y116840D01*
Y106680D02*
X165160D01*
Y116840D01*
X144840D02*
X165160D01*
X97790Y384810D02*
Y394970D01*
Y384810D02*
X118110D01*
Y394970D01*
X97790D02*
X118110D01*
X199390Y405130D02*
X209550D01*
X199390Y384810D02*
Y405130D01*
Y384810D02*
X209550D01*
Y405130D01*
X208280Y311150D02*
Y321310D01*
Y311150D02*
X228600D01*
Y321310D01*
X208280D02*
X228600D01*
Y331470D01*
X208280D02*
X228600D01*
X208280Y321310D02*
Y331470D01*
Y321310D02*
X228600D01*
X245110Y223520D02*
Y233680D01*
X224790D02*
X245110D01*
X224790Y223520D02*
Y233680D01*
Y223520D02*
X245110D01*
X157480Y225552D02*
Y235712D01*
X137160D02*
X157480D01*
X137160Y225552D02*
Y235712D01*
Y225552D02*
X157480D01*
X245110Y233680D02*
Y243840D01*
X224790D02*
X245110D01*
X224790Y233680D02*
Y243840D01*
Y233680D02*
X245110D01*
X157480Y235712D02*
Y245872D01*
X137160D02*
X157480D01*
X137160Y235712D02*
Y245872D01*
Y235712D02*
X157480D01*
X307340Y194370D02*
X317500D01*
Y214690D01*
X307340D02*
X317500D01*
X307340Y194370D02*
Y214690D01*
X111820Y332740D02*
Y342900D01*
Y332740D02*
X132140D01*
Y342900D01*
X111820D02*
X132140D01*
X376290Y363440D02*
X386450D01*
X376290Y343120D02*
Y363440D01*
Y343120D02*
X386450D01*
Y363440D01*
X161290Y279400D02*
X171450D01*
Y299720D01*
X161290D02*
X171450D01*
X161290Y279400D02*
Y299720D01*
X172720Y279400D02*
X182880D01*
Y299720D01*
X172720D02*
X182880D01*
X172720Y279400D02*
Y299720D01*
X149860Y279400D02*
X160020D01*
Y299720D01*
X149860D02*
X160020D01*
X149860Y279400D02*
Y299720D01*
X228600Y300990D02*
Y311150D01*
X208280D02*
X228600D01*
X208280Y300990D02*
Y311150D01*
Y300990D02*
X228600D01*
X130810Y364430D02*
X140970D01*
Y384750D01*
X130810D02*
X140970D01*
X130810Y364430D02*
Y384750D01*
X111820Y322580D02*
Y332740D01*
Y322580D02*
X132140D01*
Y332740D01*
X111820D02*
X132140D01*
X111700Y312420D02*
Y322580D01*
Y312420D02*
X132020D01*
Y322580D01*
X111700D02*
X132020D01*
X229810Y334010D02*
Y344170D01*
X209490D02*
X229810D01*
X209490Y334010D02*
Y344170D01*
Y334010D02*
X229810D01*
X229705Y344170D02*
Y354330D01*
X209385D02*
X229705D01*
X209385Y344170D02*
Y354330D01*
Y344170D02*
X229705D01*
X97536Y372618D02*
X113284D01*
X97536D02*
Y384302D01*
X113284D01*
Y372618D02*
Y384302D01*
X96266Y438658D02*
X112014D01*
X96266D02*
Y450342D01*
X112014D01*
Y438658D02*
Y450342D01*
X97738Y406400D02*
X113486D01*
X97738D02*
Y418084D01*
X113486D01*
Y406400D02*
Y418084D01*
D16*
X98384Y324359D02*
Y329437D01*
X100923D01*
X101770Y328591D01*
Y326898D01*
X100923Y326052D01*
X98384D01*
X100077D02*
X101770Y324359D01*
X106848Y329437D02*
X103462D01*
Y326898D01*
X105155Y327744D01*
X106002D01*
X106848Y326898D01*
Y325205D01*
X106002Y324359D01*
X104309D01*
X103462Y325205D01*
M02*
