G04*
G04 #@! TF.GenerationSoftware,Altium Limited,Altium Designer,25.4.2 (15)*
G04*
G04 Layer_Physical_Order=4*
G04 Layer_Color=16711680*
%FSLAX44Y44*%
%MOMM*%
G71*
G04*
G04 #@! TF.SameCoordinates,29215CF5-64BA-4912-966D-9DE338AB4048*
G04*
G04*
G04 #@! TF.FilePolarity,Positive*
G04*
G01*
G75*
%ADD61R,1.8400X1.8400*%
%ADD62C,1.8400*%
%ADD63C,1.5700*%
%ADD64R,1.5700X1.5700*%
G04:AMPARAMS|DCode=65|XSize=1mm|YSize=2.2mm|CornerRadius=0.5mm|HoleSize=0mm|Usage=FLASHONLY|Rotation=270.000|XOffset=0mm|YOffset=0mm|HoleType=Round|Shape=RoundedRectangle|*
%AMROUNDEDRECTD65*
21,1,1.0000,1.2000,0,0,270.0*
21,1,0.0000,2.2000,0,0,270.0*
1,1,1.0000,-0.6000,0.0000*
1,1,1.0000,-0.6000,0.0000*
1,1,1.0000,0.6000,0.0000*
1,1,1.0000,0.6000,0.0000*
%
%ADD65ROUNDEDRECTD65*%
G04:AMPARAMS|DCode=66|XSize=1mm|YSize=1.8mm|CornerRadius=0.5mm|HoleSize=0mm|Usage=FLASHONLY|Rotation=270.000|XOffset=0mm|YOffset=0mm|HoleType=Round|Shape=RoundedRectangle|*
%AMROUNDEDRECTD66*
21,1,1.0000,0.8000,0,0,270.0*
21,1,0.0000,1.8000,0,0,270.0*
1,1,1.0000,-0.4000,0.0000*
1,1,1.0000,-0.4000,0.0000*
1,1,1.0000,0.4000,0.0000*
1,1,1.0000,0.4000,0.0000*
%
%ADD66ROUNDEDRECTD66*%
%ADD67C,0.2540*%
%ADD68C,0.3810*%
%ADD69C,1.6050*%
%ADD70R,1.6050X1.6050*%
%ADD71C,1.5748*%
%ADD72C,0.6096*%
D61*
X35560Y147320D02*
D03*
X452120Y439420D02*
D03*
D62*
X35560Y121920D02*
D03*
Y96520D02*
D03*
Y71120D02*
D03*
Y45720D02*
D03*
Y20320D02*
D03*
X452120Y414020D02*
D03*
Y388620D02*
D03*
Y363220D02*
D03*
Y337820D02*
D03*
Y312420D02*
D03*
D63*
X451600Y50800D02*
D03*
Y76200D02*
D03*
Y101600D02*
D03*
Y127000D02*
D03*
Y152400D02*
D03*
Y177800D02*
D03*
Y203200D02*
D03*
Y228600D02*
D03*
Y254000D02*
D03*
D64*
Y279400D02*
D03*
D65*
X8820Y459760D02*
D03*
Y373360D02*
D03*
D66*
X48820Y459760D02*
D03*
Y373360D02*
D03*
D67*
X185420Y217170D02*
X288290D01*
X391922Y152400D02*
X423164D01*
X346202Y106680D02*
X391922Y152400D01*
X342646Y115062D02*
X389636Y162052D01*
X422910D01*
X337312Y106680D02*
X346202D01*
X336804Y107188D02*
X337312Y106680D01*
X344850Y98978D02*
X355158Y109286D01*
X344930Y88450D02*
Y95465D01*
X344850Y95545D02*
X344930Y95465D01*
X344850Y95545D02*
Y98978D01*
X380238Y114300D02*
X471170D01*
X335674Y69736D02*
X380238Y114300D01*
X318889Y69736D02*
X335674D01*
X355158Y109286D02*
X357698D01*
X365465Y117053D01*
Y119339D02*
X383286Y137160D01*
X365465Y117053D02*
Y119339D01*
X35560Y147320D02*
X317554D01*
X321364Y151130D02*
X322326D01*
X317554Y147320D02*
X321364Y151130D01*
X345186Y151892D02*
Y161036D01*
X332486Y139192D02*
X345186Y151892D01*
X311681Y160528D02*
X336550D01*
X336804Y160782D01*
X310288Y161921D02*
X311681Y160528D01*
X285365Y161921D02*
X310288D01*
X283464Y160020D02*
X285365Y161921D01*
X334010Y353060D02*
X339344Y347726D01*
X334010Y353060D02*
Y372110D01*
X383286Y137160D02*
X453136D01*
X131118Y336604D02*
X198964Y404450D01*
X203790D02*
X204470Y405130D01*
X198964Y404450D02*
X203790D01*
X263398Y160020D02*
X283464D01*
X354584Y170052D02*
X356996Y167640D01*
X349376Y170052D02*
X354584D01*
X356996Y138201D02*
Y167640D01*
X331216Y112421D02*
X356996Y138201D01*
X144423Y337717D02*
Y340511D01*
X148974Y345061D01*
X139110Y332404D02*
X144423Y337717D01*
X131118Y330908D02*
Y336604D01*
Y330908D02*
X138684Y323342D01*
X83820Y318770D02*
Y323850D01*
Y318770D02*
X185420Y217170D01*
X76200Y337058D02*
X93944Y354802D01*
X76200Y316992D02*
Y337058D01*
Y316992D02*
X186200Y206992D01*
X96048Y354802D02*
X103886Y346964D01*
X93944Y354802D02*
X96048D01*
X103886Y346964D02*
X117602D01*
X118110Y347472D01*
X110490Y365760D02*
X144780Y400050D01*
X110490Y358140D02*
Y365760D01*
X81280Y302260D02*
X184150Y199390D01*
X43180Y302260D02*
X81280D01*
X184150Y199390D02*
X223724D01*
X186200Y206992D02*
X286152D01*
X304930Y188214D01*
X223724Y199390D02*
X236157Y186957D01*
X285160D01*
X328930Y194310D02*
Y210820D01*
X408686Y290576D02*
X475996D01*
X328930Y210820D02*
X408686Y290576D01*
X289560Y250190D02*
X328930Y210820D01*
X231200Y250190D02*
X289560D01*
X321310Y184150D02*
X322036D01*
X489168Y52160D02*
Y54264D01*
X451600Y76200D02*
X467232D01*
X489168Y54264D01*
X28448Y8636D02*
X445644D01*
X489168Y52160D01*
X451600Y50800D02*
X477828D01*
X479098Y52070D01*
X480060D01*
X279654Y170942D02*
X280334Y170262D01*
Y167271D02*
Y170262D01*
Y167271D02*
X280473Y167132D01*
X285160Y186957D02*
X290805Y181311D01*
X283650Y183401D02*
X291790Y175260D01*
X280440Y178792D02*
X288290Y170942D01*
X273025Y173482D02*
X278335Y178792D01*
X234684Y183401D02*
X283650D01*
X278335Y178792D02*
X280440D01*
X225044Y193040D02*
X234684Y183401D01*
X280473Y167132D02*
X346456D01*
X349376Y170052D01*
X118098Y169418D02*
X259733D01*
X267747Y165577D02*
X267970Y165354D01*
X259733Y169418D02*
X263574Y165577D01*
X267747D01*
X24523Y262993D02*
X118098Y169418D01*
X132334Y305562D02*
X280670D01*
X291084Y315976D01*
X126746Y311150D02*
Y370840D01*
Y311150D02*
X132334Y305562D01*
X144780Y400050D02*
X170180D01*
X195580Y425450D01*
X208280D01*
X214630Y419100D01*
X398780D01*
X434340Y454660D01*
X468412D01*
X469900Y453172D01*
Y364708D02*
Y453172D01*
X468412Y363220D02*
X469900Y364708D01*
X452120Y363220D02*
X468412D01*
X345186Y65278D02*
X406654D01*
X429006Y87630D01*
X35560Y121920D02*
X56388Y142748D01*
X327914D01*
X330454Y145288D01*
Y155194D01*
X35560Y96520D02*
X71120D01*
X77978Y103378D01*
X286760D01*
X322574Y139192D01*
X332486D01*
X23876Y82804D02*
X35560Y71120D01*
X23876Y82804D02*
Y159004D01*
X30734Y165862D01*
X257556D01*
X263398Y160020D01*
X243840Y35560D02*
X277114Y68834D01*
X309880D01*
X331216Y90170D01*
Y112421D01*
X193040Y35560D02*
X238760Y81280D01*
X314960D01*
X327660Y93980D01*
Y114587D01*
X345948Y132875D01*
Y144526D01*
X167640Y35560D02*
X177800Y25400D01*
X224536D01*
X228600Y29464D01*
Y37592D01*
X266954Y75946D01*
X297688D01*
X142240Y35560D02*
X197104Y90424D01*
X289052D01*
X302768Y104140D01*
X116840Y35560D02*
X132080Y20320D01*
X315976D01*
X325120Y29464D01*
Y64008D01*
X330200Y177800D02*
X451600D01*
X327660Y175260D02*
X330200Y177800D01*
X291790Y175260D02*
X327660D01*
X178816Y193040D02*
X225044D01*
X82296Y289560D02*
X178816Y193040D01*
X38608Y289560D02*
X82296D01*
X30480Y297688D02*
X38608Y289560D01*
X30480Y297688D02*
Y314960D01*
X17780Y327660D02*
X30480Y314960D01*
X451600Y177800D02*
X461772Y167628D01*
Y145796D02*
Y167628D01*
X453136Y137160D02*
X461772Y145796D01*
X388366Y203200D02*
X451600D01*
X366522Y181356D02*
X388366Y203200D01*
X326644Y181356D02*
X366522D01*
X324104Y178816D02*
X326644Y181356D01*
X315976Y178816D02*
X324104D01*
X313481Y181311D02*
X315976Y178816D01*
X290805Y181311D02*
X313481D01*
X451600Y203200D02*
X476504Y178296D01*
Y110744D02*
Y178296D01*
X457200Y91440D02*
X476504Y110744D01*
X441452Y91440D02*
X457200D01*
X439420Y93472D02*
X441452Y91440D01*
X367030Y93472D02*
X439420D01*
X351536Y77978D02*
X367030Y93472D01*
X17780Y276860D02*
X24523Y270117D01*
Y262993D02*
Y270117D01*
X148974Y345061D02*
X153292D01*
X162138Y353908D01*
Y359750D01*
X182626Y380238D01*
X335788D01*
X378206Y337820D01*
X452120D01*
X17780Y302260D02*
X32766Y287274D01*
Y266446D02*
Y287274D01*
Y266446D02*
X125730Y173482D01*
X273025D01*
X288290Y170942D02*
X342772D01*
X345438Y173608D01*
X430392D01*
X451600Y152400D01*
X193040Y249428D02*
X203200Y259588D01*
X245618D01*
X330454Y344424D01*
X288290Y217170D02*
X321310Y184150D01*
X171704Y251460D02*
X181102Y242062D01*
X214884D01*
X228346Y255524D01*
X251206D01*
X339344Y343662D01*
Y347726D01*
X23876Y34036D02*
X35560Y45720D01*
X23876Y13208D02*
Y34036D01*
Y13208D02*
X28448Y8636D01*
X451600Y76200D02*
X480060Y104660D01*
Y286512D01*
X475996Y290576D02*
X480060Y286512D01*
X206248Y419100D02*
X211328Y414020D01*
X135890Y355520D02*
X199470Y419100D01*
X206248D01*
X211328Y414020D02*
X452120D01*
X311935Y62782D02*
X318889Y69736D01*
X311935Y52855D02*
Y62782D01*
X294640Y35560D02*
X311935Y52855D01*
D68*
X109018Y430022D02*
X111558Y432562D01*
X102581Y418738D02*
X128557D01*
X111558Y432562D02*
X117602D01*
X97790Y422910D02*
X98409D01*
X102581Y418738D01*
X96318Y430022D02*
X109018D01*
X117602Y432562D02*
X125222Y424942D01*
X128557Y418738D02*
X143905Y434086D01*
D69*
X17780Y276860D02*
D03*
Y302260D02*
D03*
X43180Y327660D02*
D03*
Y276860D02*
D03*
Y302260D02*
D03*
D70*
X17780Y327660D02*
D03*
D71*
X294640Y35560D02*
D03*
X269240D02*
D03*
X243840D02*
D03*
X218440D02*
D03*
X193040D02*
D03*
X167640D02*
D03*
X142240D02*
D03*
X116840D02*
D03*
D72*
X422910Y162052D02*
D03*
X423164Y152400D02*
D03*
X342646Y115062D02*
D03*
X336804Y107188D02*
D03*
X344930Y88450D02*
D03*
X97790Y422910D02*
D03*
X96318Y430022D02*
D03*
X322326Y151130D02*
D03*
X345186Y161036D02*
D03*
X336804Y160782D02*
D03*
X334010Y372110D02*
D03*
X204470Y405130D02*
D03*
X138684Y323342D02*
D03*
X139110Y332404D02*
D03*
X231155Y217185D02*
D03*
X118110Y347472D02*
D03*
X480060Y52070D02*
D03*
X291084Y315976D02*
D03*
X125222Y424942D02*
D03*
X126746Y370840D02*
D03*
X304930Y188214D02*
D03*
X135890Y355520D02*
D03*
X171704Y251460D02*
D03*
X321310Y184150D02*
D03*
X471170Y114300D02*
D03*
X231200Y250190D02*
D03*
X110490Y358140D02*
D03*
X83820Y323850D02*
D03*
X328930Y194310D02*
D03*
X325120Y64008D02*
D03*
X193040Y249428D02*
D03*
X302768Y104140D02*
D03*
X297688Y75946D02*
D03*
X429006Y87630D02*
D03*
X330454Y155194D02*
D03*
X345948Y144526D02*
D03*
X345186Y65278D02*
D03*
X143905Y434086D02*
D03*
X351536Y77978D02*
D03*
X330454Y344424D02*
D03*
X279654Y170942D02*
D03*
X267970Y165354D02*
D03*
M02*
