G04*
G04 #@! TF.GenerationSoftware,Altium Limited,Altium Designer,25.4.2 (15)*
G04*
G04 Layer_Color=8388736*
%FSLAX44Y44*%
%MOMM*%
G71*
G04*
G04 #@! TF.SameCoordinates,9A7FD730-A280-42E6-8FDC-0554BF83374D*
G04*
G04*
G04 #@! TF.FilePolarity,Negative*
G04*
G01*
G75*
%ADD21R,1.5500X1.3000*%
%ADD22R,0.6000X0.7000*%
%ADD23R,1.5000X3.2000*%
%ADD24R,1.1500X0.6000*%
%ADD25R,1.1500X0.3000*%
%ADD31R,0.8611X0.2425*%
G04:AMPARAMS|DCode=32|XSize=0.8611mm|YSize=0.2425mm|CornerRadius=0.1212mm|HoleSize=0mm|Usage=FLASHONLY|Rotation=0.000|XOffset=0mm|YOffset=0mm|HoleType=Round|Shape=RoundedRectangle|*
%AMROUNDEDRECTD32*
21,1,0.8611,0.0000,0,0,0.0*
21,1,0.6186,0.2425,0,0,0.0*
1,1,0.2425,0.3093,0.0000*
1,1,0.2425,-0.3093,0.0000*
1,1,0.2425,-0.3093,0.0000*
1,1,0.2425,0.3093,0.0000*
%
%ADD32ROUNDEDRECTD32*%
%ADD33R,1.0500X1.3000*%
G04:AMPARAMS|DCode=34|XSize=0.2425mm|YSize=0.9397mm|CornerRadius=0.1212mm|HoleSize=0mm|Usage=FLASHONLY|Rotation=90.000|XOffset=0mm|YOffset=0mm|HoleType=Round|Shape=RoundedRectangle|*
%AMROUNDEDRECTD34*
21,1,0.2425,0.6972,0,0,90.0*
21,1,0.0000,0.9397,0,0,90.0*
1,1,0.2425,0.3486,0.0000*
1,1,0.2425,0.3486,0.0000*
1,1,0.2425,-0.3486,0.0000*
1,1,0.2425,-0.3486,0.0000*
%
%ADD34ROUNDEDRECTD34*%
G04:AMPARAMS|DCode=35|XSize=0.9397mm|YSize=0.2425mm|CornerRadius=0.1212mm|HoleSize=0mm|Usage=FLASHONLY|Rotation=90.000|XOffset=0mm|YOffset=0mm|HoleType=Round|Shape=RoundedRectangle|*
%AMROUNDEDRECTD35*
21,1,0.9397,0.0000,0,0,90.0*
21,1,0.6972,0.2425,0,0,90.0*
1,1,0.2425,0.0000,0.3486*
1,1,0.2425,0.0000,-0.3486*
1,1,0.2425,0.0000,-0.3486*
1,1,0.2425,0.0000,0.3486*
%
%ADD35ROUNDEDRECTD35*%
%ADD36R,0.2425X0.9397*%
%ADD39R,1.1581X1.0121*%
%ADD40R,1.0121X1.1581*%
G04:AMPARAMS|DCode=44|XSize=1.5216mm|YSize=0.5016mm|CornerRadius=0.1008mm|HoleSize=0mm|Usage=FLASHONLY|Rotation=180.000|XOffset=0mm|YOffset=0mm|HoleType=Round|Shape=RoundedRectangle|*
%AMROUNDEDRECTD44*
21,1,1.5216,0.3000,0,0,180.0*
21,1,1.3200,0.5016,0,0,180.0*
1,1,0.2016,-0.6600,0.1500*
1,1,0.2016,0.6600,0.1500*
1,1,0.2016,0.6600,-0.1500*
1,1,0.2016,-0.6600,-0.1500*
%
%ADD44ROUNDEDRECTD44*%
G04:AMPARAMS|DCode=45|XSize=3.2516mm|YSize=1.5516mm|CornerRadius=0.1016mm|HoleSize=0mm|Usage=FLASHONLY|Rotation=270.000|XOffset=0mm|YOffset=0mm|HoleType=Round|Shape=RoundedRectangle|*
%AMROUNDEDRECTD45*
21,1,3.2516,1.3485,0,0,270.0*
21,1,3.0485,1.5516,0,0,270.0*
1,1,0.2031,-0.6743,-1.5243*
1,1,0.2031,-0.6743,1.5243*
1,1,0.2031,0.6743,1.5243*
1,1,0.2031,0.6743,-1.5243*
%
%ADD45ROUNDEDRECTD45*%
G04:AMPARAMS|DCode=46|XSize=1.0016mm|YSize=1.5516mm|CornerRadius=0.1003mm|HoleSize=0mm|Usage=FLASHONLY|Rotation=270.000|XOffset=0mm|YOffset=0mm|HoleType=Round|Shape=RoundedRectangle|*
%AMROUNDEDRECTD46*
21,1,1.0016,1.3510,0,0,270.0*
21,1,0.8010,1.5516,0,0,270.0*
1,1,0.2006,-0.6755,-0.4005*
1,1,0.2006,-0.6755,0.4005*
1,1,0.2006,0.6755,0.4005*
1,1,0.2006,0.6755,-0.4005*
%
%ADD46ROUNDEDRECTD46*%
%ADD47R,0.9016X0.9016*%
%ADD48R,1.1016X1.0716*%
%ADD49R,0.7500X1.4500*%
%ADD50R,2.0500X2.0500*%
%ADD51R,0.6016X0.5516*%
%ADD52R,0.5516X0.6016*%
%ADD53R,0.4516X0.7016*%
%ADD54O,1.4516X0.6516*%
%ADD55O,0.6516X1.4516*%
%ADD56R,1.0000X1.7000*%
%ADD57R,0.6500X0.2500*%
%ADD58C,1.7066*%
%ADD59R,1.7066X1.7066*%
%ADD60C,1.6764*%
%ADD61R,1.8400X1.8400*%
%ADD62C,1.8400*%
%ADD63C,1.5700*%
%ADD64R,1.5700X1.5700*%
G04:AMPARAMS|DCode=65|XSize=1mm|YSize=2.2mm|CornerRadius=0.5mm|HoleSize=0mm|Usage=FLASHONLY|Rotation=270.000|XOffset=0mm|YOffset=0mm|HoleType=Round|Shape=RoundedRectangle|*
%AMROUNDEDRECTD65*
21,1,1.0000,1.2000,0,0,270.0*
21,1,0.0000,2.2000,0,0,270.0*
1,1,1.0000,-0.6000,0.0000*
1,1,1.0000,-0.6000,0.0000*
1,1,1.0000,0.6000,0.0000*
1,1,1.0000,0.6000,0.0000*
%
%ADD65ROUNDEDRECTD65*%
G04:AMPARAMS|DCode=66|XSize=1mm|YSize=1.8mm|CornerRadius=0.5mm|HoleSize=0mm|Usage=FLASHONLY|Rotation=270.000|XOffset=0mm|YOffset=0mm|HoleType=Round|Shape=RoundedRectangle|*
%AMROUNDEDRECTD66*
21,1,1.0000,0.8000,0,0,270.0*
21,1,0.0000,1.8000,0,0,270.0*
1,1,1.0000,-0.4000,0.0000*
1,1,1.0000,-0.4000,0.0000*
1,1,1.0000,0.4000,0.0000*
1,1,1.0000,0.4000,0.0000*
%
%ADD66ROUNDEDRECTD66*%
D21*
X313310Y270150D02*
D03*
X392810D02*
D03*
X313310Y225150D02*
D03*
X392810D02*
D03*
D22*
X122250Y96520D02*
D03*
X131750D02*
D03*
X149931D02*
D03*
X159431D02*
D03*
D23*
X362630Y434340D02*
D03*
X320630D02*
D03*
D24*
X54570Y384560D02*
D03*
Y448560D02*
D03*
Y440560D02*
D03*
Y392560D02*
D03*
D25*
Y399060D02*
D03*
Y404060D02*
D03*
Y409060D02*
D03*
Y414060D02*
D03*
Y419060D02*
D03*
Y424060D02*
D03*
Y429060D02*
D03*
Y434060D02*
D03*
D31*
X298629Y363380D02*
D03*
D32*
Y356880D02*
D03*
Y350380D02*
D03*
X319140D02*
D03*
Y356880D02*
D03*
Y363380D02*
D03*
D33*
X251714Y100076D02*
D03*
Y123076D02*
D03*
X234214D02*
D03*
Y100076D02*
D03*
D34*
X146715Y327820D02*
D03*
Y332820D02*
D03*
Y337820D02*
D03*
Y342820D02*
D03*
Y347820D02*
D03*
X186025D02*
D03*
Y342820D02*
D03*
Y337820D02*
D03*
Y332820D02*
D03*
Y327820D02*
D03*
D35*
X156370Y357475D02*
D03*
X161370D02*
D03*
X166370D02*
D03*
X171370D02*
D03*
X176370D02*
D03*
Y318165D02*
D03*
X171370D02*
D03*
X166370D02*
D03*
X161370D02*
D03*
D36*
X156370D02*
D03*
D39*
X113426Y240284D02*
D03*
X96886D02*
D03*
X113568Y222250D02*
D03*
X97028D02*
D03*
X113680Y194056D02*
D03*
X97140D02*
D03*
X113680Y176022D02*
D03*
X97140D02*
D03*
X187848Y377190D02*
D03*
X171308D02*
D03*
X187848Y397256D02*
D03*
X171308D02*
D03*
X224140Y408940D02*
D03*
X240680D02*
D03*
X224140Y391160D02*
D03*
X240680D02*
D03*
X224140Y373380D02*
D03*
X240680D02*
D03*
X380858Y119126D02*
D03*
X397398D02*
D03*
X234920Y142240D02*
D03*
X251460D02*
D03*
X234808Y162306D02*
D03*
X251348D02*
D03*
X381112Y155194D02*
D03*
X397652D02*
D03*
X383570Y200660D02*
D03*
X367030D02*
D03*
X397398Y101092D02*
D03*
X380858D02*
D03*
X397398Y83058D02*
D03*
X380858D02*
D03*
X397540Y137160D02*
D03*
X381000D02*
D03*
X452740Y20320D02*
D03*
X469280D02*
D03*
X195550Y100330D02*
D03*
X212090D02*
D03*
Y118364D02*
D03*
X195550D02*
D03*
X285720Y426720D02*
D03*
X302260D02*
D03*
D40*
X181610Y184150D02*
D03*
Y200690D02*
D03*
X201930Y184150D02*
D03*
Y200690D02*
D03*
X312420Y302910D02*
D03*
Y286370D02*
D03*
X381370Y316360D02*
D03*
Y332900D02*
D03*
X363336Y316360D02*
D03*
Y332900D02*
D03*
D44*
X171530Y217580D02*
D03*
Y224080D02*
D03*
Y230580D02*
D03*
Y237080D02*
D03*
X206930D02*
D03*
Y230580D02*
D03*
Y224080D02*
D03*
Y217580D02*
D03*
D45*
X18510Y217170D02*
D03*
D46*
X80010Y240170D02*
D03*
Y217170D02*
D03*
Y194170D02*
D03*
D47*
X414590Y424840D02*
D03*
Y443840D02*
D03*
X390590Y434340D02*
D03*
D48*
X381794Y66294D02*
D03*
X396494D02*
D03*
D49*
X308885Y356880D02*
D03*
D50*
X166370Y337820D02*
D03*
D51*
X407550Y410210D02*
D03*
X400050D02*
D03*
X180220Y415290D02*
D03*
X172720D02*
D03*
X128210Y111760D02*
D03*
X120710D02*
D03*
X158750D02*
D03*
X151250D02*
D03*
X111700Y389890D02*
D03*
X104200D02*
D03*
X222190Y316230D02*
D03*
X214690D02*
D03*
Y326390D02*
D03*
X222190D02*
D03*
X231200Y228600D02*
D03*
X238700D02*
D03*
X143570Y230632D02*
D03*
X151070D02*
D03*
X231200Y238760D02*
D03*
X238700D02*
D03*
X143570Y240792D02*
D03*
X151070D02*
D03*
X125730Y337820D02*
D03*
X118230D02*
D03*
X214690Y306070D02*
D03*
X222190D02*
D03*
X125730Y327660D02*
D03*
X118230D02*
D03*
X125610Y317500D02*
D03*
X118110D02*
D03*
X215900Y339090D02*
D03*
X223400D02*
D03*
X215795Y349250D02*
D03*
X223295D02*
D03*
D52*
X124460Y398660D02*
D03*
Y391160D02*
D03*
X204470Y391220D02*
D03*
Y398720D02*
D03*
X312420Y208280D02*
D03*
Y200780D02*
D03*
X381370Y349530D02*
D03*
Y357030D02*
D03*
X166370Y293310D02*
D03*
Y285810D02*
D03*
X177800Y293310D02*
D03*
Y285810D02*
D03*
X154940Y293310D02*
D03*
Y285810D02*
D03*
X135890Y378340D02*
D03*
Y370840D02*
D03*
D53*
X108660Y378460D02*
D03*
X102160D02*
D03*
X107390Y444500D02*
D03*
X100890D02*
D03*
X108862Y412242D02*
D03*
X102362D02*
D03*
D54*
X275430Y157950D02*
D03*
Y149950D02*
D03*
Y141950D02*
D03*
Y133950D02*
D03*
Y125950D02*
D03*
Y117950D02*
D03*
Y109950D02*
D03*
Y101950D02*
D03*
X358430D02*
D03*
Y109950D02*
D03*
Y117950D02*
D03*
Y125950D02*
D03*
Y133950D02*
D03*
Y141950D02*
D03*
Y149950D02*
D03*
Y157950D02*
D03*
D55*
X288930Y88450D02*
D03*
X296930D02*
D03*
X304930D02*
D03*
X312930D02*
D03*
X320930D02*
D03*
X328930D02*
D03*
X336930D02*
D03*
X344930D02*
D03*
Y171450D02*
D03*
X336930D02*
D03*
X328930D02*
D03*
X320930D02*
D03*
X312930D02*
D03*
X304930D02*
D03*
X296930D02*
D03*
X288930D02*
D03*
D56*
X352610Y358180D02*
D03*
D57*
X340360Y365680D02*
D03*
Y360680D02*
D03*
Y355680D02*
D03*
Y350680D02*
D03*
X364860D02*
D03*
Y355680D02*
D03*
Y360680D02*
D03*
Y365680D02*
D03*
D58*
X17780Y276860D02*
D03*
Y302260D02*
D03*
X43180Y327660D02*
D03*
Y276860D02*
D03*
Y302260D02*
D03*
D59*
X17780Y327660D02*
D03*
D60*
X294640Y35560D02*
D03*
X269240D02*
D03*
X243840D02*
D03*
X218440D02*
D03*
X193040D02*
D03*
X167640D02*
D03*
X142240D02*
D03*
X116840D02*
D03*
D61*
X35560Y147320D02*
D03*
X452120Y439420D02*
D03*
D62*
X35560Y121920D02*
D03*
Y96520D02*
D03*
Y71120D02*
D03*
Y45720D02*
D03*
Y20320D02*
D03*
X452120Y414020D02*
D03*
Y388620D02*
D03*
Y363220D02*
D03*
Y337820D02*
D03*
Y312420D02*
D03*
D63*
X451600Y50800D02*
D03*
Y76200D02*
D03*
Y101600D02*
D03*
Y127000D02*
D03*
Y152400D02*
D03*
Y177800D02*
D03*
Y203200D02*
D03*
Y228600D02*
D03*
Y254000D02*
D03*
D64*
Y279400D02*
D03*
D65*
X8820Y459760D02*
D03*
Y373360D02*
D03*
D66*
X48820Y459760D02*
D03*
Y373360D02*
D03*
M02*
