G04*
G04 #@! TF.GenerationSoftware,Altium Limited,Altium Designer,25.4.2 (15)*
G04*
G04 Layer_Color=16711935*
%FSLAX44Y44*%
%MOMM*%
G71*
G04*
G04 #@! TF.SameCoordinates,9A7FD730-A280-42E6-8FDC-0554BF83374D*
G04*
G04*
G04 #@! TF.FilePolarity,Negative*
G04*
G01*
G75*
%ADD58C,1.7066*%
%ADD59R,1.7066X1.7066*%
%ADD60C,1.6764*%
%ADD61R,1.8400X1.8400*%
%ADD62C,1.8400*%
%ADD63C,1.5700*%
%ADD64R,1.5700X1.5700*%
G04:AMPARAMS|DCode=65|XSize=1mm|YSize=2.2mm|CornerRadius=0.5mm|HoleSize=0mm|Usage=FLASHONLY|Rotation=270.000|XOffset=0mm|YOffset=0mm|HoleType=Round|Shape=RoundedRectangle|*
%AMROUNDEDRECTD65*
21,1,1.0000,1.2000,0,0,270.0*
21,1,0.0000,2.2000,0,0,270.0*
1,1,1.0000,-0.6000,0.0000*
1,1,1.0000,-0.6000,0.0000*
1,1,1.0000,0.6000,0.0000*
1,1,1.0000,0.6000,0.0000*
%
%ADD65ROUNDEDRECTD65*%
G04:AMPARAMS|DCode=66|XSize=1mm|YSize=1.8mm|CornerRadius=0.5mm|HoleSize=0mm|Usage=FLASHONLY|Rotation=270.000|XOffset=0mm|YOffset=0mm|HoleType=Round|Shape=RoundedRectangle|*
%AMROUNDEDRECTD66*
21,1,1.0000,0.8000,0,0,270.0*
21,1,0.0000,1.8000,0,0,270.0*
1,1,1.0000,-0.4000,0.0000*
1,1,1.0000,-0.4000,0.0000*
1,1,1.0000,0.4000,0.0000*
1,1,1.0000,0.4000,0.0000*
%
%ADD66ROUNDEDRECTD66*%
D58*
X17780Y276860D02*
D03*
Y302260D02*
D03*
X43180Y327660D02*
D03*
Y276860D02*
D03*
Y302260D02*
D03*
D59*
X17780Y327660D02*
D03*
D60*
X294640Y35560D02*
D03*
X269240D02*
D03*
X243840D02*
D03*
X218440D02*
D03*
X193040D02*
D03*
X167640D02*
D03*
X142240D02*
D03*
X116840D02*
D03*
D61*
X35560Y147320D02*
D03*
X452120Y439420D02*
D03*
D62*
X35560Y121920D02*
D03*
Y96520D02*
D03*
Y71120D02*
D03*
Y45720D02*
D03*
Y20320D02*
D03*
X452120Y414020D02*
D03*
Y388620D02*
D03*
Y363220D02*
D03*
Y337820D02*
D03*
Y312420D02*
D03*
D63*
X451600Y50800D02*
D03*
Y76200D02*
D03*
Y101600D02*
D03*
Y127000D02*
D03*
Y152400D02*
D03*
Y177800D02*
D03*
Y203200D02*
D03*
Y228600D02*
D03*
Y254000D02*
D03*
D64*
Y279400D02*
D03*
D65*
X8820Y459760D02*
D03*
Y373360D02*
D03*
D66*
X48820Y459760D02*
D03*
Y373360D02*
D03*
M02*
