G04*
G04 #@! TF.GenerationSoftware,Altium Limited,Altium Designer,25.4.2 (15)*
G04*
G04 Layer_Physical_Order=1*
G04 Layer_Color=255*
%FSLAX44Y44*%
%MOMM*%
G71*
G04*
G04 #@! TF.SameCoordinates,9A7FD730-A280-42E6-8FDC-0554BF83374D*
G04*
G04*
G04 #@! TF.FilePolarity,Positive*
G04*
G01*
G75*
%ADD21R,1.5500X1.3000*%
%ADD22R,0.6000X0.7000*%
%ADD23R,1.5000X3.2000*%
%ADD24R,1.1500X0.6000*%
%ADD25R,1.1500X0.3000*%
G04:AMPARAMS|DCode=26|XSize=1.42mm|YSize=0.4mm|CornerRadius=0.05mm|HoleSize=0mm|Usage=FLASHONLY|Rotation=180.000|XOffset=0mm|YOffset=0mm|HoleType=Round|Shape=RoundedRectangle|*
%AMROUNDEDRECTD26*
21,1,1.4200,0.3000,0,0,180.0*
21,1,1.3200,0.4000,0,0,180.0*
1,1,0.1000,-0.6600,0.1500*
1,1,0.1000,0.6600,0.1500*
1,1,0.1000,0.6600,-0.1500*
1,1,0.1000,-0.6600,-0.1500*
%
%ADD26ROUNDEDRECTD26*%
G04:AMPARAMS|DCode=27|XSize=3.15mm|YSize=1.45mm|CornerRadius=0.0508mm|HoleSize=0mm|Usage=FLASHONLY|Rotation=270.000|XOffset=0mm|YOffset=0mm|HoleType=Round|Shape=RoundedRectangle|*
%AMROUNDEDRECTD27*
21,1,3.1500,1.3485,0,0,270.0*
21,1,3.0485,1.4500,0,0,270.0*
1,1,0.1015,-0.6743,-1.5243*
1,1,0.1015,-0.6743,1.5243*
1,1,0.1015,0.6743,1.5243*
1,1,0.1015,0.6743,-1.5243*
%
%ADD27ROUNDEDRECTD27*%
G04:AMPARAMS|DCode=28|XSize=0.9mm|YSize=1.45mm|CornerRadius=0.0495mm|HoleSize=0mm|Usage=FLASHONLY|Rotation=270.000|XOffset=0mm|YOffset=0mm|HoleType=Round|Shape=RoundedRectangle|*
%AMROUNDEDRECTD28*
21,1,0.9000,1.3510,0,0,270.0*
21,1,0.8010,1.4500,0,0,270.0*
1,1,0.0990,-0.6755,-0.4005*
1,1,0.0990,-0.6755,0.4005*
1,1,0.0990,0.6755,0.4005*
1,1,0.0990,0.6755,-0.4005*
%
%ADD28ROUNDEDRECTD28*%
%ADD29R,0.8000X0.8000*%
%ADD30R,1.0000X0.9700*%
%ADD31R,0.8611X0.2425*%
G04:AMPARAMS|DCode=32|XSize=0.8611mm|YSize=0.2425mm|CornerRadius=0.1212mm|HoleSize=0mm|Usage=FLASHONLY|Rotation=0.000|XOffset=0mm|YOffset=0mm|HoleType=Round|Shape=RoundedRectangle|*
%AMROUNDEDRECTD32*
21,1,0.8611,0.0000,0,0,0.0*
21,1,0.6186,0.2425,0,0,0.0*
1,1,0.2425,0.3093,0.0000*
1,1,0.2425,-0.3093,0.0000*
1,1,0.2425,-0.3093,0.0000*
1,1,0.2425,0.3093,0.0000*
%
%ADD32ROUNDEDRECTD32*%
%ADD33R,1.0500X1.3000*%
G04:AMPARAMS|DCode=34|XSize=0.2425mm|YSize=0.9397mm|CornerRadius=0.1212mm|HoleSize=0mm|Usage=FLASHONLY|Rotation=90.000|XOffset=0mm|YOffset=0mm|HoleType=Round|Shape=RoundedRectangle|*
%AMROUNDEDRECTD34*
21,1,0.2425,0.6972,0,0,90.0*
21,1,0.0000,0.9397,0,0,90.0*
1,1,0.2425,0.3486,0.0000*
1,1,0.2425,0.3486,0.0000*
1,1,0.2425,-0.3486,0.0000*
1,1,0.2425,-0.3486,0.0000*
%
%ADD34ROUNDEDRECTD34*%
G04:AMPARAMS|DCode=35|XSize=0.9397mm|YSize=0.2425mm|CornerRadius=0.1212mm|HoleSize=0mm|Usage=FLASHONLY|Rotation=90.000|XOffset=0mm|YOffset=0mm|HoleType=Round|Shape=RoundedRectangle|*
%AMROUNDEDRECTD35*
21,1,0.9397,0.0000,0,0,90.0*
21,1,0.6972,0.2425,0,0,90.0*
1,1,0.2425,0.0000,0.3486*
1,1,0.2425,0.0000,-0.3486*
1,1,0.2425,0.0000,-0.3486*
1,1,0.2425,0.0000,0.3486*
%
%ADD35ROUNDEDRECTD35*%
%ADD36R,0.2425X0.9397*%
%ADD37R,0.5000X0.4500*%
%ADD38R,0.4500X0.5000*%
%ADD39R,1.1581X1.0121*%
%ADD40R,1.0121X1.1581*%
%ADD41R,0.3500X0.6000*%
%ADD42O,1.3500X0.5500*%
%ADD43O,0.5500X1.3500*%
%ADD49R,0.7500X1.4500*%
%ADD50R,2.0500X2.0500*%
%ADD56R,1.0000X1.7000*%
%ADD57R,0.6500X0.2500*%
%ADD61R,1.8400X1.8400*%
%ADD62C,1.8400*%
%ADD63C,1.5700*%
%ADD64R,1.5700X1.5700*%
G04:AMPARAMS|DCode=65|XSize=1mm|YSize=2.2mm|CornerRadius=0.5mm|HoleSize=0mm|Usage=FLASHONLY|Rotation=270.000|XOffset=0mm|YOffset=0mm|HoleType=Round|Shape=RoundedRectangle|*
%AMROUNDEDRECTD65*
21,1,1.0000,1.2000,0,0,270.0*
21,1,0.0000,2.2000,0,0,270.0*
1,1,1.0000,-0.6000,0.0000*
1,1,1.0000,-0.6000,0.0000*
1,1,1.0000,0.6000,0.0000*
1,1,1.0000,0.6000,0.0000*
%
%ADD65ROUNDEDRECTD65*%
G04:AMPARAMS|DCode=66|XSize=1mm|YSize=1.8mm|CornerRadius=0.5mm|HoleSize=0mm|Usage=FLASHONLY|Rotation=270.000|XOffset=0mm|YOffset=0mm|HoleType=Round|Shape=RoundedRectangle|*
%AMROUNDEDRECTD66*
21,1,1.0000,0.8000,0,0,270.0*
21,1,0.0000,1.8000,0,0,270.0*
1,1,1.0000,-0.4000,0.0000*
1,1,1.0000,-0.4000,0.0000*
1,1,1.0000,0.4000,0.0000*
1,1,1.0000,0.4000,0.0000*
%
%ADD66ROUNDEDRECTD66*%
%ADD67C,0.2540*%
%ADD68C,0.3810*%
%ADD69C,1.6050*%
%ADD70R,1.6050X1.6050*%
%ADD71C,1.5748*%
%ADD72C,0.6096*%
D21*
X313310Y270150D02*
D03*
X392810D02*
D03*
X313310Y225150D02*
D03*
X392810D02*
D03*
D22*
X122250Y96520D02*
D03*
X131750D02*
D03*
X149931D02*
D03*
X159431D02*
D03*
D23*
X362630Y434340D02*
D03*
X320630D02*
D03*
D24*
X54570Y384560D02*
D03*
Y448560D02*
D03*
Y440560D02*
D03*
Y392560D02*
D03*
D25*
Y399060D02*
D03*
Y404060D02*
D03*
Y409060D02*
D03*
Y414060D02*
D03*
Y419060D02*
D03*
Y424060D02*
D03*
Y429060D02*
D03*
Y434060D02*
D03*
D26*
X171530Y217580D02*
D03*
Y224080D02*
D03*
Y230580D02*
D03*
Y237080D02*
D03*
X206930D02*
D03*
Y230580D02*
D03*
Y224080D02*
D03*
Y217580D02*
D03*
D27*
X18510Y217170D02*
D03*
D28*
X80010Y240170D02*
D03*
Y217170D02*
D03*
Y194170D02*
D03*
D29*
X414590Y424840D02*
D03*
Y443840D02*
D03*
X390590Y434340D02*
D03*
D30*
X381794Y66294D02*
D03*
X396494D02*
D03*
D31*
X298629Y363380D02*
D03*
D32*
Y356880D02*
D03*
Y350380D02*
D03*
X319140D02*
D03*
Y356880D02*
D03*
Y363380D02*
D03*
D33*
X251714Y100076D02*
D03*
Y123076D02*
D03*
X234214D02*
D03*
Y100076D02*
D03*
D34*
X146715Y327820D02*
D03*
Y332820D02*
D03*
Y337820D02*
D03*
Y342820D02*
D03*
Y347820D02*
D03*
X186025D02*
D03*
Y342820D02*
D03*
Y337820D02*
D03*
Y332820D02*
D03*
Y327820D02*
D03*
D35*
X156370Y357475D02*
D03*
X161370D02*
D03*
X166370D02*
D03*
X171370D02*
D03*
X176370D02*
D03*
Y318165D02*
D03*
X171370D02*
D03*
X166370D02*
D03*
X161370D02*
D03*
D36*
X156370D02*
D03*
D37*
X407550Y410210D02*
D03*
X400050D02*
D03*
X180220Y415290D02*
D03*
X172720D02*
D03*
X128210Y111760D02*
D03*
X120710D02*
D03*
X158750D02*
D03*
X151250D02*
D03*
X111700Y389890D02*
D03*
X104200D02*
D03*
X222190Y316230D02*
D03*
X214690D02*
D03*
Y326390D02*
D03*
X222190D02*
D03*
X231200Y228600D02*
D03*
X238700D02*
D03*
X143570Y230632D02*
D03*
X151070D02*
D03*
X231200Y238760D02*
D03*
X238700D02*
D03*
X143570Y240792D02*
D03*
X151070D02*
D03*
X125730Y337820D02*
D03*
X118230D02*
D03*
X214690Y306070D02*
D03*
X222190D02*
D03*
X125730Y327660D02*
D03*
X118230D02*
D03*
X125610Y317500D02*
D03*
X118110D02*
D03*
X215900Y339090D02*
D03*
X223400D02*
D03*
X215795Y349250D02*
D03*
X223295D02*
D03*
D38*
X124460Y398660D02*
D03*
Y391160D02*
D03*
X204470Y391220D02*
D03*
Y398720D02*
D03*
X312420Y208280D02*
D03*
Y200780D02*
D03*
X381370Y349530D02*
D03*
Y357030D02*
D03*
X166370Y293310D02*
D03*
Y285810D02*
D03*
X177800Y293310D02*
D03*
Y285810D02*
D03*
X154940Y293310D02*
D03*
Y285810D02*
D03*
X135890Y378340D02*
D03*
Y370840D02*
D03*
D39*
X113426Y240284D02*
D03*
X96886D02*
D03*
X113568Y222250D02*
D03*
X97028D02*
D03*
X113680Y194056D02*
D03*
X97140D02*
D03*
X113680Y176022D02*
D03*
X97140D02*
D03*
X187848Y377190D02*
D03*
X171308D02*
D03*
X187848Y397256D02*
D03*
X171308D02*
D03*
X224140Y408940D02*
D03*
X240680D02*
D03*
X224140Y391160D02*
D03*
X240680D02*
D03*
X224140Y373380D02*
D03*
X240680D02*
D03*
X380858Y119126D02*
D03*
X397398D02*
D03*
X234920Y142240D02*
D03*
X251460D02*
D03*
X234808Y162306D02*
D03*
X251348D02*
D03*
X381112Y155194D02*
D03*
X397652D02*
D03*
X383570Y200660D02*
D03*
X367030D02*
D03*
X397398Y101092D02*
D03*
X380858D02*
D03*
X397398Y83058D02*
D03*
X380858D02*
D03*
X397540Y137160D02*
D03*
X381000D02*
D03*
X452740Y20320D02*
D03*
X469280D02*
D03*
X195550Y100330D02*
D03*
X212090D02*
D03*
Y118364D02*
D03*
X195550D02*
D03*
X285720Y426720D02*
D03*
X302260D02*
D03*
D40*
X181610Y184150D02*
D03*
Y200690D02*
D03*
X201930Y184150D02*
D03*
Y200690D02*
D03*
X312420Y302910D02*
D03*
Y286370D02*
D03*
X381370Y316360D02*
D03*
Y332900D02*
D03*
X363336Y316360D02*
D03*
Y332900D02*
D03*
D41*
X108660Y378460D02*
D03*
X102160D02*
D03*
X107390Y444500D02*
D03*
X100890D02*
D03*
X108862Y412242D02*
D03*
X102362D02*
D03*
D42*
X275430Y157950D02*
D03*
Y149950D02*
D03*
Y141950D02*
D03*
Y133950D02*
D03*
Y125950D02*
D03*
Y117950D02*
D03*
Y109950D02*
D03*
Y101950D02*
D03*
X358430D02*
D03*
Y109950D02*
D03*
Y117950D02*
D03*
Y125950D02*
D03*
Y133950D02*
D03*
Y141950D02*
D03*
Y149950D02*
D03*
Y157950D02*
D03*
D43*
X288930Y88450D02*
D03*
X296930D02*
D03*
X304930D02*
D03*
X312930D02*
D03*
X320930D02*
D03*
X328930D02*
D03*
X336930D02*
D03*
X344930D02*
D03*
Y171450D02*
D03*
X336930D02*
D03*
X328930D02*
D03*
X320930D02*
D03*
X312930D02*
D03*
X304930D02*
D03*
X296930D02*
D03*
X288930D02*
D03*
D49*
X308885Y356880D02*
D03*
D50*
X166370Y337820D02*
D03*
D56*
X352610Y358180D02*
D03*
D57*
X340360Y365680D02*
D03*
Y360680D02*
D03*
Y355680D02*
D03*
Y350680D02*
D03*
X364860D02*
D03*
Y355680D02*
D03*
Y360680D02*
D03*
Y365680D02*
D03*
D61*
X35560Y147320D02*
D03*
X452120Y439420D02*
D03*
D62*
X35560Y121920D02*
D03*
Y96520D02*
D03*
Y71120D02*
D03*
Y45720D02*
D03*
Y20320D02*
D03*
X452120Y414020D02*
D03*
Y388620D02*
D03*
Y363220D02*
D03*
Y337820D02*
D03*
Y312420D02*
D03*
D63*
X451600Y50800D02*
D03*
Y76200D02*
D03*
Y101600D02*
D03*
Y127000D02*
D03*
Y152400D02*
D03*
Y177800D02*
D03*
Y203200D02*
D03*
Y228600D02*
D03*
Y254000D02*
D03*
D64*
Y279400D02*
D03*
D65*
X8820Y459760D02*
D03*
Y373360D02*
D03*
D66*
X48820Y459760D02*
D03*
Y373360D02*
D03*
D67*
X54450Y424180D02*
X54570Y424060D01*
X47462Y424180D02*
X54450D01*
X45974Y422692D02*
X47462Y424180D01*
X45974Y415548D02*
Y422692D01*
Y415548D02*
X47462Y414060D01*
X54570D01*
X362320Y350680D02*
X380390D01*
X381370Y332900D02*
Y349700D01*
X171530Y211500D02*
Y224080D01*
X143570Y225568D02*
Y240792D01*
X414590Y443840D02*
X452120D01*
X238506Y228600D02*
Y238760D01*
X238700Y228600D02*
X238950D01*
X238506D02*
X238700D01*
X251460Y142240D02*
Y162306D01*
X251206Y142240D02*
Y162306D01*
X221996Y306070D02*
Y316230D01*
X166370Y285750D02*
X177800D01*
X97028Y176022D02*
Y194056D01*
X364744Y360680D02*
Y365680D01*
X363336Y316484D02*
X381370D01*
Y315630D02*
Y316484D01*
X352610Y360680D02*
X356616D01*
X240538Y373380D02*
Y386954D01*
Y391160D02*
Y408940D01*
Y386954D02*
Y391160D01*
X308885Y353380D02*
Y369845D01*
X304607Y353380D02*
X308885D01*
X394716Y147745D02*
Y156718D01*
X396604Y84582D02*
X401918Y79267D01*
X394716Y102616D02*
Y120650D01*
Y84582D02*
Y102616D01*
X241808Y130950D02*
Y142240D01*
X349504Y133950D02*
X362550D01*
X271430Y141950D02*
X288580D01*
X187706Y377190D02*
Y397256D01*
X166370Y318165D02*
Y337820D01*
Y304800D02*
Y318165D01*
X110180Y376880D02*
X111700Y378400D01*
X48820Y373360D02*
Y384560D01*
X234920Y142240D02*
X241808D01*
X234696D02*
X234920D01*
X234696D02*
Y162306D01*
X113284Y222250D02*
Y240284D01*
X113538Y176022D02*
Y194056D01*
X204470Y391160D02*
X224140D01*
X378318Y84582D02*
Y102616D01*
X378238Y65532D02*
Y84502D01*
X379080Y135970D02*
Y137160D01*
X125610Y310000D02*
Y320040D01*
X360680Y69342D02*
Y101950D01*
X166430Y237080D02*
X171704D01*
X46736Y440560D02*
X62100D01*
X46736Y392560D02*
X74800D01*
X222190Y326390D02*
X261928D01*
X319140Y363380D02*
X322118D01*
X324418Y365680D01*
X338328D01*
X422910Y152146D02*
X423164Y152400D01*
X415762Y152146D02*
X422910D01*
X414274Y153634D02*
Y242074D01*
Y153634D02*
X415762Y152146D01*
X414274Y242074D02*
X451600Y279400D01*
X422910Y225310D02*
X451600Y254000D01*
X422910Y162052D02*
Y225310D01*
X401918Y79267D02*
Y79267D01*
Y79267D02*
X434340Y46846D01*
Y109740D01*
Y30480D02*
Y46846D01*
X394716Y84582D02*
X396604D01*
X371856Y58166D02*
X387640D01*
X389128Y127290D02*
X390616Y128778D01*
X412368D01*
X387640Y58166D02*
X389128Y59654D01*
Y127290D01*
X412368Y128778D02*
X435990Y152400D01*
X342900Y104394D02*
Y114808D01*
X342646Y115062D02*
X342900Y114808D01*
X321566Y107188D02*
X336804D01*
X335992Y97486D02*
X342900Y104394D01*
X325960Y97486D02*
X335992D01*
X312930Y98552D02*
X321566Y107188D01*
X332160Y147828D02*
X332160Y147828D01*
X322465Y151130D02*
X325767Y147828D01*
X322326Y151130D02*
X322465D01*
X325767Y147828D02*
X332160D01*
X332160Y147828D02*
X337730D01*
X312420Y171960D02*
Y200780D01*
X312930Y164342D02*
Y171450D01*
X282194Y165354D02*
X285240Y162308D01*
X310896D01*
X312420Y171960D02*
X312930Y171450D01*
X310896Y162308D02*
X312930Y164342D01*
X337730Y147828D02*
X339852Y149950D01*
X345058Y161164D02*
Y171322D01*
Y161164D02*
X345186Y161036D01*
X344930Y171450D02*
X345058Y171322D01*
X336867Y160845D02*
Y171387D01*
X336804Y160782D02*
X336867Y160845D01*
Y171387D02*
X336930Y171450D01*
X330454Y155194D02*
X351462D01*
X354218Y157950D01*
X358430D01*
X338328Y365680D02*
Y366830D01*
X334010Y371148D02*
X338328Y366830D01*
X334010Y371148D02*
Y372110D01*
X150653Y86360D02*
X158750D01*
X148443Y88570D02*
X150653Y86360D01*
X434340Y30480D02*
X444500Y20320D01*
X452740D01*
X434340Y109740D02*
X451600Y127000D01*
X204470Y398720D02*
Y405130D01*
X180220Y415290D02*
X203902D01*
X238700Y239680D02*
X238760Y239740D01*
Y245418D02*
X242570Y249228D01*
Y250190D01*
X238700Y238760D02*
Y239680D01*
X238760Y239740D02*
Y245418D01*
X312420Y208280D02*
Y208525D01*
X313400Y209505D02*
X328250D01*
X328930Y210185D01*
X312420Y208525D02*
X313400Y209505D01*
X301665Y350437D02*
X304607Y353380D01*
X340360Y360680D02*
X350110D01*
X260658Y325120D02*
X261928Y326390D01*
X396922Y155194D02*
X397652D01*
X383570Y168546D02*
X396922Y155194D01*
X383570Y168546D02*
Y200660D01*
X251714Y124326D02*
X255694Y128306D01*
X392810Y225150D02*
X394060D01*
X399290Y230380D01*
Y231630D01*
X405130Y237470D01*
Y291870D01*
X381370Y315630D02*
X405130Y291870D01*
X246380Y179070D02*
X251348Y174102D01*
Y162306D02*
Y174102D01*
X142813Y332404D02*
X143171Y332763D01*
X143287D01*
X139110Y332404D02*
X142813D01*
X220748Y196342D02*
X248412D01*
X195550Y143988D02*
X230886Y179324D01*
X231566Y178644D01*
X285720Y410240D02*
X317500Y378460D01*
X285720Y410240D02*
Y426720D01*
X400050Y400870D02*
Y410210D01*
X366840Y367660D02*
X400050Y400870D01*
X366840Y365700D02*
Y367660D01*
X366820Y365680D02*
X366840Y365700D01*
X364860Y365680D02*
X366820D01*
X260350Y325120D02*
X260658D01*
X267970Y331470D02*
Y420370D01*
X261928Y326390D02*
X262890D01*
X267970Y331470D01*
X255270Y320040D02*
X260350Y325120D01*
X267970Y420370D02*
X274320Y426720D01*
X213360Y203730D02*
X220748Y196342D01*
X213360Y203730D02*
Y211150D01*
Y196310D02*
Y203730D01*
X367707Y126516D02*
X374560Y133369D01*
X365089Y126516D02*
X365089Y126516D01*
X358430Y125950D02*
X358996Y126516D01*
X374560Y133369D02*
X376479D01*
X358996Y126516D02*
X365089D01*
X365089Y126516D02*
X367707D01*
X376479Y133369D02*
X379080Y135970D01*
X362550Y133950D02*
X376345Y147745D01*
X394716D01*
X368300Y146050D02*
Y157262D01*
X364766Y142516D02*
X368300Y146050D01*
X369788Y158750D02*
X376286D01*
X378318Y156718D01*
X368300Y157262D02*
X369788Y158750D01*
X358430Y141950D02*
X358996Y142516D01*
X364766D01*
X251714Y123076D02*
Y124326D01*
X255694Y128306D02*
X257786D01*
X271430Y141950D01*
X254588Y125950D02*
X275430D01*
X312060Y225150D02*
X313310D01*
X259080Y278130D02*
X312060Y225150D01*
X161508Y278130D02*
X259080D01*
X160020Y279618D02*
Y298450D01*
X166370Y304800D01*
X155534Y303480D02*
X161370Y309316D01*
X155534Y293904D02*
Y303480D01*
X161370Y309316D02*
Y318165D01*
X154940Y293310D02*
X155534Y293904D01*
X171370Y297260D02*
Y318165D01*
X166370Y293310D02*
Y293560D01*
X167350Y294540D02*
X168650D01*
X166370Y293560D02*
X167350Y294540D01*
X168650D02*
X171370Y297260D01*
X160020Y279618D02*
X161508Y278130D01*
X136398Y270510D02*
X242570D01*
X296930Y216150D01*
X118110Y288798D02*
X136398Y270510D01*
X201930Y184880D02*
X213360Y196310D01*
X206930Y217580D02*
X213360Y211150D01*
X201930Y184150D02*
Y184880D01*
X113680Y136510D02*
Y176022D01*
X148396Y98054D02*
X149931Y96520D01*
X148396Y98054D02*
Y101794D01*
X113680Y136510D02*
X148396Y101794D01*
X231155Y217185D02*
X231178Y217208D01*
Y228577D01*
X231200Y228600D01*
X43180Y175260D02*
X64770Y196850D01*
X16728Y175260D02*
X43180D01*
X15240Y40640D02*
Y173772D01*
X16728Y175260D01*
X64770Y196850D02*
Y304800D01*
X15240Y40640D02*
X35560Y20320D01*
X64770Y304800D02*
X83820Y323850D01*
X118170Y337880D02*
X118230Y337820D01*
X118170Y337880D02*
Y347412D01*
X118110Y347472D02*
X118170Y347412D01*
X102834Y337820D02*
X108676D01*
X101346Y339308D02*
X102834Y337820D01*
X101346Y348996D02*
X110490Y358140D01*
X101346Y339308D02*
Y348996D01*
X328930Y171450D02*
Y194310D01*
X480060Y9108D02*
Y52070D01*
X478572Y7620D02*
X480060Y9108D01*
X290830Y7620D02*
X478572D01*
X278130Y20320D02*
X290830Y7620D01*
X35560Y20320D02*
X278130D01*
X261620Y159438D02*
Y177800D01*
Y159438D02*
X263108Y157950D01*
X252730Y186690D02*
X261620Y177800D01*
X263108Y157950D02*
X275430D01*
X228346Y186690D02*
X252730D01*
X187452Y145796D02*
X228346Y186690D01*
X187452Y66548D02*
Y145796D01*
X171704Y237080D02*
Y251460D01*
X212090Y100330D02*
X234214D01*
X394716Y138684D02*
Y147745D01*
X356616Y358180D02*
Y360680D01*
X350110D02*
X352610D01*
X288422Y170942D02*
X288930Y171450D01*
X279654Y170942D02*
X288422D01*
X267970Y165354D02*
X282194D01*
X59436Y318516D02*
X96886Y355966D01*
X112562Y254254D02*
X129858D01*
X102220D02*
X112562D01*
X284734Y115664D02*
Y128646D01*
X97028Y194056D02*
X97140D01*
X90030D02*
X97028D01*
X361616Y365680D02*
X364744D01*
X88900Y355600D02*
X110180Y376880D01*
X43194Y454134D02*
X48768Y448560D01*
X37568Y459760D02*
X43194Y454134D01*
X88900Y214884D02*
X100584Y203200D01*
X138866Y323342D02*
X143287Y327763D01*
X125730Y327660D02*
X133404D01*
X137722Y323342D01*
X204470Y398720D02*
X213920D01*
X224140Y408940D01*
X96886Y240284D02*
X97028Y240142D01*
Y222250D02*
Y240142D01*
X96772Y240170D02*
X96886Y240284D01*
X80010Y240170D02*
X96772D01*
X143570Y225568D02*
X145058Y224080D01*
X171530D01*
X111349Y327660D02*
X118230D01*
X109768Y326079D02*
X111349Y327660D01*
X109768Y257048D02*
Y326079D01*
Y257048D02*
X112562Y254254D01*
X291084Y315976D02*
Y336710D01*
X18510Y217170D02*
Y240792D01*
X26638Y248920D01*
X36576D01*
X59436Y271780D01*
Y318516D01*
X143320Y240792D02*
X143570D01*
X129858Y254254D02*
X143320Y240792D01*
X96886Y248920D02*
X102220Y254254D01*
X96886Y355966D02*
X111760Y370840D01*
X126746D01*
X96886Y240284D02*
Y248920D01*
Y355966D01*
X291084Y336710D02*
X348350D01*
X126746Y370840D02*
X135890D01*
X293380Y356880D02*
X298629D01*
X291084Y354584D02*
X293380Y356880D01*
X291084Y336710D02*
Y354584D01*
X348350Y336710D02*
X362320Y350680D01*
X298629Y356880D02*
Y363380D01*
X171530Y211500D02*
X181610Y201420D01*
Y200690D02*
Y201420D01*
X380390Y350680D02*
X381370Y349700D01*
X158780Y200690D02*
X181610D01*
X151250Y193160D02*
X158780Y200690D01*
X151250Y111760D02*
Y193160D01*
X363336Y332900D02*
X381370D01*
X80010Y178816D02*
Y194170D01*
X59690Y158496D02*
X80010Y178816D01*
X59690Y158496D02*
X63754D01*
X110490Y111760D01*
X120710D01*
X80010Y194170D02*
X89916D01*
X90030Y194056D01*
X97028Y176022D02*
X97140D01*
X201930Y200690D02*
Y201420D01*
X193818Y209532D02*
X201930Y201420D01*
X193818Y209532D02*
Y220794D01*
X197104Y224080D01*
X206930D01*
X207660Y223350D01*
X214292D01*
X231394Y206248D01*
X240828D01*
X242316Y207736D01*
Y224984D01*
X239930Y227370D02*
X242316Y224984D01*
X239930Y227370D02*
Y227620D01*
X238950Y228600D02*
X239930Y227620D01*
X238506Y238760D02*
X238700D01*
X251206Y142240D02*
X251460D01*
X251206Y162306D02*
X251348D01*
X275430Y133950D02*
X279430D01*
X284734Y128646D01*
X345186Y44450D02*
X383540D01*
X392938Y53848D01*
X275430Y117950D02*
X282448D01*
X284734Y115664D01*
Y97282D02*
Y115664D01*
X281940Y94488D02*
X284734Y97282D01*
X281940Y78994D02*
Y94488D01*
Y78994D02*
X302878Y58056D01*
X331580D01*
X345186Y44450D01*
X392938Y53848D02*
Y65532D01*
X452120Y439420D02*
Y443840D01*
X166370Y285750D02*
Y285810D01*
X177800Y285750D02*
Y285810D01*
X201028D01*
X204778Y289560D01*
X205740D01*
X215770D01*
X222190Y295980D01*
Y306070D01*
X221996D02*
X222190D01*
X221996Y316230D02*
X222190D01*
X133858Y337820D02*
X146715D01*
X132370Y336332D02*
X133858Y337820D01*
X132370Y335244D02*
Y336332D01*
X129866Y332740D02*
X132370Y335244D01*
X113756Y332740D02*
X129866D01*
X108676Y337820D02*
X113756Y332740D01*
X452120Y363220D02*
X463804Y374904D01*
Y395224D01*
X458724Y400304D02*
X463804Y395224D01*
X436880Y400304D02*
X458724D01*
X427990Y391414D02*
X436880Y400304D01*
X427990Y363728D02*
Y391414D01*
X388874Y324612D02*
X427990Y363728D01*
X339344Y324612D02*
X388874D01*
X317642Y302910D02*
X339344Y324612D01*
X312420Y302910D02*
X317642D01*
X122250Y90058D02*
Y96520D01*
Y90058D02*
X123738Y88570D01*
X148443D01*
X149931Y90058D01*
Y96520D01*
X113538Y194056D02*
X113680D01*
X113538Y176022D02*
X113680D01*
Y194056D02*
Y200152D01*
X110632Y203200D02*
X113680Y200152D01*
X100584Y203200D02*
X110632D01*
X113568Y214884D02*
Y222250D01*
X88900Y214884D02*
X113568D01*
X86614Y217170D02*
X88900Y214884D01*
X80010Y217170D02*
X86614D01*
X113284Y222250D02*
X113568D01*
X113284Y240284D02*
X113426D01*
X195550Y118364D02*
X203708D01*
Y102616D02*
Y118364D01*
Y102616D02*
X205994Y100330D01*
X212090D01*
X234214Y100076D02*
Y100330D01*
X195550Y118364D02*
Y143988D01*
X231566Y178644D02*
X234468D01*
X234808Y178304D01*
Y162306D02*
Y178304D01*
X234696Y162306D02*
X234808D01*
X241808Y130950D02*
X249682Y123076D01*
X251714D01*
X181610Y184150D02*
X201930D01*
X8820Y373360D02*
X48820D01*
X8820D02*
Y459760D01*
X48820Y384560D02*
X54570D01*
X37568Y459760D02*
X48820D01*
X8820D02*
X37568D01*
X48768Y448560D02*
X54570D01*
X48820Y373360D02*
X66580Y355600D01*
X88900D01*
X108660Y377360D02*
Y378460D01*
Y377360D02*
X109140Y376880D01*
X110180D01*
X111700Y378400D02*
Y389890D01*
X123440D01*
X124460Y390910D01*
Y391160D01*
X111700Y389890D02*
Y409024D01*
X110212Y410512D02*
X111700Y409024D01*
X109342Y410512D02*
X110212D01*
X108862Y410992D02*
X109342Y410512D01*
X108862Y410992D02*
Y412242D01*
X109342Y412722D01*
Y419052D01*
X111760Y421470D01*
Y425450D01*
X107390Y429820D02*
X111760Y425450D01*
X107390Y429820D02*
Y444500D01*
X338744Y123190D02*
X349504Y133950D01*
X321056Y123190D02*
X338744D01*
X310896Y133350D02*
X321056Y123190D01*
X297180Y133350D02*
X310896D01*
X288580Y141950D02*
X297180Y133350D01*
X166370Y337820D02*
Y357475D01*
Y337820D02*
X187848Y359298D01*
Y377190D01*
X187706D02*
X187848D01*
X187706Y397256D02*
X187848D01*
Y377190D02*
X208280D01*
X213360Y382270D01*
X235854D01*
X240538Y386954D01*
Y373380D02*
X240680D01*
Y387096D02*
Y391160D01*
X240538Y386954D02*
X240680Y387096D01*
Y391160D02*
Y408940D01*
X240538Y391160D02*
X240680D01*
X240538Y408940D02*
X240680D01*
X274320Y426720D02*
X285720D01*
X298947Y257048D02*
Y263283D01*
Y257048D02*
X301993Y254002D01*
X308228D02*
X313310Y248920D01*
Y225150D02*
Y248920D01*
X255270Y306960D02*
Y320040D01*
Y306960D02*
X298947Y263283D01*
X301993Y254002D02*
X308228D01*
X394716Y102616D02*
X394858D01*
X394716Y120650D02*
X394858D01*
X394716Y138684D02*
X394858D01*
X394716Y156718D02*
X394858D01*
X383570Y200660D02*
X390144D01*
X392810Y203326D01*
Y225150D01*
X308885Y369845D02*
X317500Y378460D01*
X345222D01*
X348880Y374802D01*
Y361910D02*
Y374802D01*
Y361910D02*
X350110Y360680D01*
X352610Y358180D01*
X356616Y360680D02*
X361616Y365680D01*
X352610Y358180D02*
Y360680D01*
Y358180D02*
X356616D01*
X364744Y360680D02*
X364860D01*
X363336Y316360D02*
Y316484D01*
X312930Y88450D02*
Y98552D01*
X320930Y88450D02*
Y92456D01*
X325960Y97486D01*
X328930Y81534D02*
Y88450D01*
Y81534D02*
X345186Y65278D01*
X429006Y87630D02*
Y130580D01*
X440690Y142264D01*
X457200D01*
X461736Y146800D01*
Y218464D01*
X451600Y228600D02*
X461736Y218464D01*
X339852Y149950D02*
X358430D01*
X187452Y66548D02*
X218440Y35560D01*
X345948Y140970D02*
Y144526D01*
X333502Y128524D02*
X345948Y140970D01*
X324104Y128524D02*
X333502D01*
X302678Y149950D02*
X324104Y128524D01*
X275430Y149950D02*
X302678D01*
X292486Y75946D02*
X297688D01*
X288930Y79502D02*
X292486Y75946D01*
X288930Y79502D02*
Y88450D01*
X296930Y98302D02*
X302768Y104140D01*
X296930Y88450D02*
Y98302D01*
X320170Y64008D02*
X325120D01*
X304930Y79248D02*
X320170Y64008D01*
X304930Y79248D02*
Y88450D01*
X339216Y77978D02*
X351536D01*
X336930Y80264D02*
X339216Y77978D01*
X336930Y80264D02*
Y88450D01*
X135890Y378340D02*
X170158D01*
X171308Y377190D01*
Y397256D01*
Y360908D02*
Y377190D01*
Y360908D02*
X171370Y360846D01*
Y357475D02*
Y360846D01*
X171308Y397256D02*
X172720Y398668D01*
Y415290D01*
X176370Y357475D02*
Y363314D01*
X179578Y366522D01*
Y403352D01*
X184150Y407924D01*
X193040D01*
X197358Y403606D01*
Y395030D02*
Y403606D01*
Y395030D02*
X201168Y391220D01*
X204470D01*
Y391160D02*
Y391220D01*
X186025Y347820D02*
X211585Y373380D01*
X224140D01*
X358430Y117950D02*
X363231D01*
X365931Y120650D01*
X378318D01*
X377588Y102616D02*
X378318D01*
X370254Y109950D02*
X377588Y102616D01*
X358430Y109950D02*
X370254D01*
X378238Y84502D02*
X378318Y84582D01*
X451600Y101600D02*
X469280Y83920D01*
Y20320D02*
Y83920D01*
X195550Y94757D02*
Y100330D01*
Y94757D02*
X199883Y90424D01*
X249682D01*
X251714Y92456D01*
Y100076D01*
X268755D01*
X270629Y101950D01*
X275430D01*
X212090Y118364D02*
X230234D01*
X234214Y122344D01*
Y123076D01*
Y121826D02*
Y122344D01*
Y121826D02*
X246090Y109950D01*
X275430D01*
X128210Y100560D02*
Y111760D01*
Y100560D02*
X131750Y97020D01*
Y96520D02*
Y97020D01*
X158750Y97201D02*
X159431Y96520D01*
X158750Y97201D02*
Y111760D01*
X362630Y434340D02*
X390590D01*
X54570Y429060D02*
X64516D01*
X85290Y449834D01*
X110490D01*
X118816Y441508D01*
Y404305D02*
Y441508D01*
Y404305D02*
X124460Y398660D01*
X407550Y410210D02*
Y417800D01*
X414590Y424840D01*
X312420Y200780D02*
X366910D01*
X367030Y200660D01*
Y270150D02*
X392810D01*
X329910D02*
X367030D01*
X313689Y286370D02*
X329910Y270150D01*
X367030Y200660D02*
Y270150D01*
X312420Y286370D02*
X313689D01*
X312420Y278512D02*
Y286370D01*
Y278512D02*
X313310Y277622D01*
Y270150D02*
Y277622D01*
X269240Y35560D02*
X291846Y12954D01*
X461010D01*
Y26162D01*
X441452Y45720D02*
X461010Y26162D01*
X441452Y45720D02*
Y106680D01*
X449072Y114300D01*
X457200D01*
X465292Y122392D01*
Y286040D01*
X459232Y292100D02*
X465292Y286040D01*
X453136Y292100D02*
X459232D01*
X440436Y304800D02*
X453136Y292100D01*
X440436Y304800D02*
Y376936D01*
X452120Y388620D01*
X259080Y25400D02*
X269240Y35560D01*
X186944Y25400D02*
X259080D01*
X182880Y29464D02*
X186944Y25400D01*
X182880Y29464D02*
Y157480D01*
X174244Y166116D02*
X182880Y157480D01*
X174244Y166116D02*
Y192278D01*
X188976D01*
X193548Y196850D01*
Y203200D01*
X188722Y208026D02*
X193548Y203200D01*
X188722Y208026D02*
Y226568D01*
X197104Y234950D01*
Y241554D01*
X198374Y242824D01*
Y254762D01*
X193040Y260096D02*
X198374Y254762D01*
X126532Y260096D02*
X193040D01*
X113324Y273304D02*
X126532Y260096D01*
X113324Y273304D02*
Y322072D01*
X123578D01*
X125610Y320040D01*
Y310000D02*
X131572Y304038D01*
X150528D01*
X156370Y309880D01*
Y318165D01*
X435990Y152400D02*
X451600D01*
X360680Y69342D02*
X371856Y58166D01*
X358430Y101950D02*
X360680D01*
X171504Y230606D02*
X171530Y230580D01*
X151096Y230606D02*
X171504D01*
X151070Y230632D02*
X151096Y230606D01*
X171530Y230580D02*
X184860D01*
X193040Y238760D01*
Y249428D01*
X330454Y344424D02*
X336710Y350680D01*
X333850D02*
X336710D01*
X340360D01*
X331470Y353060D02*
X333850Y350680D01*
X323721Y353060D02*
X331470D01*
X322175Y351515D02*
X323721Y353060D01*
X322175Y350437D02*
Y351515D01*
X322118Y350380D02*
X322175Y350437D01*
X319140Y350380D02*
X322118D01*
X206930Y230580D02*
X228970D01*
X230928Y228622D01*
X231200Y228600D01*
X320930Y167386D02*
Y171450D01*
Y183770D02*
X321310Y184150D01*
X320930Y171450D02*
Y183770D01*
X162718Y240792D02*
X166430Y237080D01*
X151070Y240792D02*
X162718D01*
X338328Y365680D02*
X340360D01*
X231200Y238760D02*
Y250190D01*
X230950Y238760D02*
X231200D01*
X229270Y237080D02*
X230950Y238760D01*
X206930Y237080D02*
X229270D01*
X125730Y337820D02*
X125980D01*
X130980Y342820D01*
X140208D01*
X146715D01*
X135890Y347138D02*
X140208Y342820D01*
X135890Y347138D02*
Y355520D01*
X452120Y414020D02*
X471170Y394970D01*
Y114300D02*
Y394970D01*
X214440Y326390D02*
X214690D01*
X208010Y332820D02*
X214440Y326390D01*
X186025Y332820D02*
X208010D01*
X214690Y316230D02*
Y326390D01*
X304930Y171450D02*
Y188214D01*
X118110Y288798D02*
Y317500D01*
X296930Y171450D02*
Y216150D01*
X364860Y355680D02*
X380270D01*
X381370Y356780D01*
Y357030D01*
X177800Y293310D02*
Y293560D01*
X176370Y294990D02*
X177800Y293560D01*
X176370Y294990D02*
Y318165D01*
X186025Y327820D02*
X187395D01*
X209145Y306070D01*
X214690D01*
X74800Y392560D02*
X88900Y378460D01*
X102160D01*
X42164Y397132D02*
X46736Y392560D01*
X42164Y397132D02*
Y435988D01*
X46736Y440560D01*
X62100D02*
X76200Y454660D01*
X111760D01*
X121920Y444500D01*
X283750D01*
X301530Y426720D01*
X302260D01*
X307594D01*
X315214Y434340D01*
X320630D01*
X54570Y399060D02*
X76440D01*
X85610Y389890D01*
X104200D01*
D68*
X96318Y430022D02*
Y430641D01*
X98227Y422473D02*
X98938D01*
X97353D02*
X97790Y422910D01*
X96318Y430641D02*
X100890Y435213D01*
X97790Y422910D02*
X98227Y422473D01*
X90535D02*
X97353D01*
X87122Y419060D02*
X90535Y422473D01*
X98938D02*
X102362Y419048D01*
X100890Y435213D02*
Y444500D01*
X54570Y419060D02*
X87122D01*
X102362Y412242D02*
Y419048D01*
X77350Y424060D02*
X97635Y444345D01*
X100735D01*
X100890Y444500D01*
X54570Y424060D02*
X77350D01*
X244094Y424942D02*
X249428Y419608D01*
X232331Y365398D02*
X249428D01*
X223295Y349250D02*
Y356362D01*
X125222Y424942D02*
X244094D01*
X249428Y365398D02*
Y419608D01*
X223295Y356362D02*
X232331Y365398D01*
X54570Y409060D02*
X76708D01*
X79890Y412242D01*
X102362D01*
X143905Y434086D02*
X253818D01*
X259298Y428606D01*
Y361131D02*
Y428606D01*
X237257Y339090D02*
X259298Y361131D01*
X223400Y339090D02*
X237257D01*
X186025Y342820D02*
X199387D01*
X205817Y349250D01*
X215795D01*
X186025Y337820D02*
X201571D01*
X202841Y339090D01*
X215900D01*
D69*
X17780Y276860D02*
D03*
Y302260D02*
D03*
X43180Y327660D02*
D03*
Y276860D02*
D03*
Y302260D02*
D03*
D70*
X17780Y327660D02*
D03*
D71*
X294640Y35560D02*
D03*
X269240D02*
D03*
X243840D02*
D03*
X218440D02*
D03*
X193040D02*
D03*
X167640D02*
D03*
X142240D02*
D03*
X116840D02*
D03*
D72*
X422910Y162052D02*
D03*
X423164Y152400D02*
D03*
X342646Y115062D02*
D03*
X336804Y107188D02*
D03*
X344930Y88450D02*
D03*
X97790Y422910D02*
D03*
X96318Y430022D02*
D03*
X322326Y151130D02*
D03*
X345186Y161036D02*
D03*
X336804Y160782D02*
D03*
X334010Y372110D02*
D03*
X158750Y86360D02*
D03*
X203902Y415290D02*
D03*
X204470Y405130D02*
D03*
X242570Y250190D02*
D03*
X328930Y210185D02*
D03*
X246380Y179070D02*
D03*
X138684Y323342D02*
D03*
X139110Y332404D02*
D03*
X262890Y326390D02*
D03*
X248412Y196342D02*
D03*
X230886Y179324D02*
D03*
X231155Y217185D02*
D03*
X118110Y347472D02*
D03*
X345186Y44450D02*
D03*
X480060Y52070D02*
D03*
X205740Y289560D02*
D03*
X291084Y315976D02*
D03*
X125222Y424942D02*
D03*
X59690Y158496D02*
D03*
X126746Y370840D02*
D03*
X304930Y188214D02*
D03*
X135890Y355520D02*
D03*
X171704Y251460D02*
D03*
X321310Y184150D02*
D03*
X471170Y114300D02*
D03*
X231200Y250190D02*
D03*
X110490Y358140D02*
D03*
X83820Y323850D02*
D03*
X328930Y194310D02*
D03*
X325120Y64008D02*
D03*
X193040Y249428D02*
D03*
X302768Y104140D02*
D03*
X297688Y75946D02*
D03*
X429006Y87630D02*
D03*
X330454Y155194D02*
D03*
X345948Y144526D02*
D03*
X345186Y65278D02*
D03*
X143905Y434086D02*
D03*
X351536Y77978D02*
D03*
X330454Y344424D02*
D03*
X279654Y170942D02*
D03*
X267970Y165354D02*
D03*
M02*
